<svg width="603" height="494" viewBox="0 0 603 494" fill="none" xmlns="http://www.w3.org/2000/svg">
<g opacity="0.4" filter="url(#filter0_f_190_9)">
<path fill-rule="evenodd" clip-rule="evenodd" d="M548.429 141.257C548.374 141.153 548.318 141.05 548.263 140.947C548.212 140.854 548.162 140.76 548.111 140.667L548.263 140.947L548.429 141.257Z" fill="#E1F0FF"/>
<mask id="mask0_190_9" style="mask-type:alpha" maskUnits="userSpaceOnUse" x="53" y="101" width="502" height="328">
<path d="M257.96 165.509C160.383 217.246 89.9808 286.922 72.8552 342.199L53.7015 352.355L74.5858 391.734C74.6877 391.932 74.7907 392.13 74.8955 392.328C104.554 448.265 234.601 437.407 365.363 368.076C496.126 298.744 578.087 197.194 548.428 141.257L548.262 140.947L548.11 140.667L527.234 101.284L508.081 111.439C452.717 94.5968 355.538 113.773 257.96 165.509Z" fill="#1E1E1E"/>
</mask>
<g mask="url(#mask0_190_9)">
<path d="M257.96 165.509C160.383 217.246 89.9808 286.922 72.8552 342.199L53.7015 352.355L74.5858 391.734C74.6877 391.932 74.7907 392.13 74.8955 392.328C104.554 448.265 234.601 437.407 365.363 368.076C496.126 298.744 578.087 197.194 548.428 141.257L548.262 140.947L548.11 140.667L527.234 101.284L508.081 111.439C452.717 94.5968 355.538 113.773 257.96 165.509Z" fill="black"/>
<rect x="267.31" y="272.892" width="84.0858" height="185.918" transform="rotate(-27.9329 267.31 272.892)" fill="#778DA2"/>
<rect x="60.3457" y="331.143" width="84.0858" height="185.918" transform="rotate(-27.9329 60.3457 331.143)" fill="#778DA2"/>
<rect x="429.855" y="138.23" width="84.0858" height="185.918" transform="rotate(-27.9329 429.855 138.23)" fill="#778DA2"/>
</g>
<mask id="mask1_190_9" style="mask-type:alpha" maskUnits="userSpaceOnUse" x="47" y="65" width="487" height="324">
<path d="M237.049 126.067C302.375 91.4303 367.499 71.4139 419.964 67.0333C446.198 64.8429 469.237 66.5645 487.545 72.2988C505.85 78.0319 519.384 87.7616 526.703 101.566C534.022 115.37 534.48 132.031 528.955 150.399C523.428 168.771 511.925 188.807 495.391 209.293C462.325 250.261 409.214 292.934 343.888 327.571C278.561 362.208 213.437 382.224 160.971 386.605C134.737 388.795 111.698 387.074 93.3902 381.34C75.0861 375.606 61.5522 365.877 54.2331 352.073C46.9141 338.269 46.455 321.607 51.9806 303.239C57.5073 284.867 69.0105 264.831 85.5442 244.346C118.61 203.377 171.722 160.704 237.049 126.067Z" fill="#1E1E1E" stroke="#5A5A5A" stroke-width="1.20347"/>
</mask>
<g mask="url(#mask1_190_9)">
<path d="M237.049 126.067C302.375 91.4303 367.499 71.4139 419.964 67.0333C446.198 64.8429 469.237 66.5645 487.545 72.2988C505.85 78.0319 519.384 87.7616 526.703 101.566C534.022 115.37 534.48 132.031 528.955 150.399C523.428 168.771 511.925 188.807 495.391 209.293C462.325 250.261 409.214 292.934 343.888 327.571C278.561 362.208 213.437 382.224 160.971 386.605C134.737 388.795 111.698 387.074 93.3902 381.34C75.0861 375.606 61.5522 365.877 54.2331 352.073C46.9141 338.269 46.455 321.607 51.9806 303.239C57.5073 284.867 69.0105 264.831 85.5442 244.346C118.61 203.377 171.722 160.704 237.049 126.067Z" fill="url(#paint0_linear_190_9)" stroke="#5A5A5A" stroke-width="1.20347"/>
<g filter="url(#filter1_g_190_9)">
<path fill-rule="evenodd" clip-rule="evenodd" d="M47.635 326.917C48.638 330.98 50.1085 334.868 52.0645 338.557C81.7229 394.494 211.77 383.636 342.532 314.304C455.328 254.499 531.812 170.72 531.664 112.924C545.87 170.475 466.308 263.343 344.169 328.102C213.407 397.434 83.3599 408.292 53.7014 352.355C49.6265 344.669 47.6586 336.122 47.635 326.917Z" fill="#4A4A4A"/>
</g>
<path d="M276.361 288.655L350.124 249.546L380.631 307.084L346.785 332.705L306.868 346.194L276.361 288.655Z" fill="#E1F0FF"/>
<path d="M185.559 124.575L265.264 82.3155L299.452 153.975L265.607 179.596L225.69 193.084L185.559 124.575Z" fill="#E1F0FF"/>
<path d="M114.983 322.069L224.83 312.831L182.398 384.458L113.248 402.501L85.895 379.15L114.983 322.069Z" fill="#E1F0FF"/>
<path d="M467.682 139.151L398.397 224.891L481.494 229.96L535.231 182.848L531.252 147.104L467.682 139.151Z" fill="#E1F0FF"/>
<path d="M452.683 19.3895L384.135 105.719L467.272 110.077L520.604 62.5058L516.318 26.7977L452.683 19.3895Z" fill="#E1F0FF"/>
<path d="M39.2998 235.209L149.289 227.855L105.636 298.744L36.1869 315.599L9.23803 291.784L39.2998 235.209Z" fill="#E1F0FF"/>
<ellipse cx="286.969" cy="220.223" rx="229.429" ry="90.6781" transform="rotate(-27.9329 286.969 220.223)" fill="#1E1E1E"/>
<path fill-rule="evenodd" clip-rule="evenodd" d="M500.29 133.46C499.585 131.681 498.782 129.939 497.879 128.236C464.871 65.9796 356.44 80.7538 244.492 140.109C132.545 199.465 56.8303 288.745 92.4808 343.182C93.3835 344.884 94.375 346.526 95.4524 348.108C74.3032 294.704 143.361 215.041 251.699 157.599C360.037 100.157 467.953 85.9872 500.29 133.46Z" fill="black"/>
<path d="M245.606 142.209C301.384 112.636 356.524 94.8519 400.527 89.9416C422.536 87.4856 441.632 88.2638 456.586 92.3058C471.534 96.3464 482.114 103.575 487.569 113.863C493.024 124.151 493.07 136.965 488.027 151.605C482.982 166.251 472.911 182.495 458.528 199.334C429.772 233.001 384.111 268.663 328.333 298.237C272.556 327.811 217.414 345.595 173.411 350.505C151.402 352.961 132.307 352.182 117.353 348.14C102.405 344.099 91.825 336.871 86.37 326.582C80.9151 316.294 80.8688 303.48 85.9122 288.84C90.9573 274.195 101.028 257.952 115.411 241.113C144.166 207.446 189.828 171.783 245.606 142.209Z" stroke="#E1F0FF" stroke-width="4.75312"/>
</g>
</g>
<defs>
<filter id="filter0_f_190_9" x="39.6348" y="57.5142" width="522.86" height="378.583" filterUnits="userSpaceOnUse" color-interpolation-filters="sRGB">
<feFlood flood-opacity="0" result="BackgroundImageFix"/>
<feBlend mode="normal" in="SourceGraphic" in2="BackgroundImageFix" result="shape"/>
<feGaussianBlur stdDeviation="4" result="effect1_foregroundBlur_190_9"/>
</filter>
<filter id="filter1_g_190_9" x="7.83553" y="73.1241" width="565.265" height="354.799" filterUnits="userSpaceOnUse" color-interpolation-filters="sRGB">
<feFlood flood-opacity="0" result="BackgroundImageFix"/>
<feBlend mode="normal" in="SourceGraphic" in2="BackgroundImageFix" result="shape"/>
<feTurbulence type="fractalNoise" baseFrequency="0.55855226516723633 0.55855226516723633" numOctaves="3" seed="9305" />
<feDisplacementMap in="shape" scale="79.598960876464844" xChannelSelector="R" yChannelSelector="G" result="displacedImage" width="100%" height="100%" />
<feMerge result="effect1_texture_190_9">
<feMergeNode in="displacedImage"/>
</feMerge>
</filter>
<linearGradient id="paint0_linear_190_9" x1="236.767" y1="125.536" x2="344.169" y2="328.102" gradientUnits="userSpaceOnUse">
<stop offset="0.897641" stop-color="#1E1E1E"/>
<stop offset="1" stop-color="#848484"/>
</linearGradient>
</defs>
</svg>
