<svg width="214" height="231" viewBox="0 0 214 231" fill="none" xmlns="http://www.w3.org/2000/svg">
<g style="mix-blend-mode:luminosity">
<mask id="mask0_190_30" style="mask-type:alpha" maskUnits="userSpaceOnUse" x="16" y="26" width="182" height="179">
<path d="M85.4853 26.5719C80.9367 25.5822 76.2056 27.0943 73.0741 30.5387L19.4784 89.4899C16.3469 92.9342 15.2909 97.7875 16.7081 102.222L40.9634 178.113C42.3806 182.547 46.0557 185.888 50.6043 186.878L128.455 203.817C133.004 204.807 137.735 203.295 140.867 199.851L194.462 140.899C197.594 137.455 198.65 132.602 197.233 128.168L172.977 52.2767C171.56 47.8426 167.885 44.5014 163.336 43.5116L85.4853 26.5719Z" fill="#D9D9D9"/>
</mask>
<g mask="url(#mask0_190_30)">
<path d="M85.4853 26.5719C80.9367 25.5822 76.2056 27.0943 73.0741 30.5387L19.4784 89.4899C16.3469 92.9342 15.2909 97.7875 16.7081 102.222L40.9634 178.113C42.3806 182.547 46.0557 185.888 50.6043 186.878L128.455 203.817C133.004 204.807 137.735 203.295 140.867 199.851L194.462 140.899C197.594 137.455 198.65 132.602 197.233 128.168L172.977 52.2767C171.56 47.8426 167.885 44.5014 163.336 43.5116L85.4853 26.5719Z" fill="#17497A"/>
<g filter="url(#filter0_g_190_30)">
<path fill-rule="evenodd" clip-rule="evenodd" d="M15.8868 99.6522C14.9778 96.8081 15.6552 93.6951 17.6638 91.4858L73.0741 30.5387C76.2056 27.0943 80.9367 25.5822 85.4853 26.5719L163.336 43.5116C167.885 44.5014 171.56 47.8426 172.977 52.2767L198.412 131.858C199.1 134.009 198.588 136.362 197.069 138.032C197.156 136.469 196.962 134.88 196.47 133.342L172.215 57.4513C170.798 53.0172 167.123 49.676 162.574 48.6862L84.7231 31.7465C80.1745 30.7568 75.4433 32.2689 72.3119 35.7133L18.7161 94.6645C17.3918 96.1211 16.4387 97.8298 15.8868 99.6522Z" fill="#4A9BEB"/>
</g>
<circle cx="9.49581" cy="9.49581" r="9.49581" transform="matrix(0.977136 0.212616 0.304437 0.952532 30.0818 109.616)" fill="#6C9DCD"/>
<circle cx="9.49581" cy="9.49581" r="9.49581" transform="matrix(0.977136 0.212616 0.304437 0.952532 80.0702 120.492)" fill="#6C9DCD"/>
<circle cx="9.49581" cy="9.49581" r="9.49581" transform="matrix(0.977136 0.212616 0.304437 0.952532 46.3717 160.584)" fill="#6C9DCD"/>
<circle cx="9.49581" cy="9.49581" r="9.49581" transform="matrix(0.977136 0.212616 0.304437 0.952532 96.3607 171.461)" fill="#6C9DCD"/>
<circle cx="9.49581" cy="9.49581" r="9.49581" transform="matrix(0.672699 -0.739917 0.304437 0.952532 143.978 123.247)" fill="#6C9DCD"/>
<circle cx="9.49581" cy="9.49581" r="9.49581" transform="matrix(0.672699 -0.739917 0.304437 0.952532 117.645 117.768)" fill="#6C9DCD"/>
<circle cx="9.49581" cy="9.49581" r="9.49581" transform="matrix(0.672699 -0.739917 0.304437 0.952532 168.349 130.884)" fill="#6C9DCD"/>
<circle cx="9.49581" cy="9.49581" r="9.49581" transform="matrix(0.672699 -0.739917 0.977136 0.212616 76.9022 75.0855)" fill="#6C9DCD"/>
<circle cx="9.49581" cy="9.49581" r="9.49581" transform="matrix(0.672699 -0.739917 0.977136 0.212616 32.5712 89.4027)" fill="#6C9DCD"/>
<circle cx="9.49581" cy="9.49581" r="9.49581" transform="matrix(0.672699 -0.739917 0.977136 0.212616 66.9855 51.5496)" fill="#6C9DCD"/>
<circle cx="9.49581" cy="9.49581" r="9.49581" transform="matrix(0.672699 -0.739917 0.977136 0.212616 84.8564 100.779)" fill="#6C9DCD"/>
<circle cx="9.49581" cy="9.49581" r="9.49581" transform="matrix(0.672699 -0.739917 0.977136 0.212616 119.271 62.9265)" fill="#6C9DCD"/>
<g filter="url(#filter1_g_190_30)">
<path d="M98.2486 111.268L49.3738 104.558L97.8148 116.615C98.6007 116.811 99.251 117.361 99.5745 118.103L117.579 159.432L108.302 115.44C108.121 114.582 108.384 113.69 109.001 113.067L149.046 72.702L105.552 109.164C103.523 110.864 100.871 111.628 98.2486 111.268Z" fill="#4A9BEB"/>
</g>
</g>
</g>
<defs>
<filter id="filter0_g_190_30" x="7.90671" y="18.6904" width="198.389" height="126.925" filterUnits="userSpaceOnUse" color-interpolation-filters="sRGB">
<feFlood flood-opacity="0" result="BackgroundImageFix"/>
<feBlend mode="normal" in="SourceGraphic" in2="BackgroundImageFix" result="shape"/>
<feTurbulence type="fractalNoise" baseFrequency="0.99900001287460327 0.99900001287460327" numOctaves="3" seed="4662" />
<feDisplacementMap in="shape" scale="15.166563987731934" xChannelSelector="R" yChannelSelector="G" result="displacedImage" width="100%" height="100%" />
<feMerge result="effect1_texture_190_30">
<feMergeNode in="displacedImage"/>
</feMerge>
</filter>
<filter id="filter1_g_190_30" x="41.7905" y="65.1186" width="114.839" height="101.897" filterUnits="userSpaceOnUse" color-interpolation-filters="sRGB">
<feFlood flood-opacity="0" result="BackgroundImageFix"/>
<feBlend mode="normal" in="SourceGraphic" in2="BackgroundImageFix" result="shape"/>
<feTurbulence type="fractalNoise" baseFrequency="0.99900001287460327 0.99900001287460327" numOctaves="3" seed="4662" />
<feDisplacementMap in="shape" scale="15.166563987731934" xChannelSelector="R" yChannelSelector="G" result="displacedImage" width="100%" height="100%" />
<feMerge result="effect1_texture_190_30">
<feMergeNode in="displacedImage"/>
</feMerge>
</filter>
</defs>
</svg>
