<svg width="209" height="176" viewBox="0 0 209 176" fill="none" xmlns="http://www.w3.org/2000/svg">
<path fill-rule="evenodd" clip-rule="evenodd" d="M13.892 50.2491C13.9115 50.2123 13.9313 50.1756 13.9511 50.139C13.9691 50.1057 13.987 50.0725 14.0051 50.0393L13.9511 50.139L13.892 50.2491Z" fill="#A4CFF9"/>
<mask id="mask0_1_1409" style="mask-type:alpha" maskUnits="userSpaceOnUse" x="11" y="36" width="179" height="117">
<path d="M117.22 58.8766C151.931 77.2808 176.976 102.067 183.068 121.731L189.881 125.343L182.452 139.351C182.416 139.422 182.379 139.493 182.342 139.563C171.792 159.461 125.53 155.599 79.014 130.936C32.4978 106.272 3.34176 70.1478 13.8922 50.2492L13.9512 50.1392L14.0053 50.0395L21.4315 36.0297L28.2451 39.6423C47.9397 33.6509 82.5091 40.4724 117.22 58.8766Z" fill="#1E1E1E"/>
</mask>
<g mask="url(#mask0_1_1409)">
<path d="M117.22 58.8766C151.931 77.2808 176.976 102.067 183.068 121.731L189.881 125.343L182.452 139.351C182.416 139.422 182.379 139.493 182.342 139.563C171.792 159.461 125.53 155.599 79.014 130.936C32.4978 106.272 3.34176 70.1478 13.8922 50.2492L13.9512 50.1392L14.0053 50.0395L21.4315 36.0297L28.2451 39.6423C47.9397 33.6509 82.5091 40.4724 117.22 58.8766Z" fill="#002F5C"/>
<rect width="29.9118" height="66.1365" transform="matrix(-0.883497 -0.468438 -0.468438 0.883497 113.895 97.076)" fill="#4073A5"/>
<rect width="29.9118" height="66.1365" transform="matrix(-0.883497 -0.468438 -0.468438 0.883497 187.517 117.797)" fill="#4073A5"/>
<rect width="29.9118" height="66.1365" transform="matrix(-0.883497 -0.468438 -0.468438 0.883497 56.072 49.1725)" fill="#4073A5"/>
</g>
<mask id="mask1_1_1409" style="mask-type:alpha" maskUnits="userSpaceOnUse" x="19" y="23" width="174" height="116">
<path d="M124.66 44.8459C101.421 32.5245 78.2541 25.4047 59.5906 23.8464C50.2584 23.0672 42.0628 23.6793 35.5502 25.7191C29.0389 27.7586 24.2246 31.2193 21.621 36.1297C19.0174 41.0403 18.8539 46.9678 20.8196 53.5018C22.7856 60.037 26.8778 67.1644 32.7592 74.4516C44.5218 89.0254 63.4152 104.205 86.6539 116.526C109.893 128.848 133.059 135.969 151.722 137.527C161.054 138.306 169.25 137.694 175.763 135.654C182.274 133.615 187.089 130.153 189.692 125.243C192.296 120.332 192.459 114.405 190.493 107.871C188.527 101.336 184.435 94.2088 178.554 86.9217C166.791 72.3478 147.898 57.1673 124.66 44.8459Z" fill="#1E1E1E" stroke="#5A5A5A" stroke-width="0.428109"/>
</mask>
<g mask="url(#mask1_1_1409)">
<path d="M124.66 44.8459C101.421 32.5245 78.2541 25.4047 59.5906 23.8464C50.2584 23.0672 42.0628 23.6793 35.5502 25.7191C29.0389 27.7586 24.2246 31.2193 21.621 36.1297C19.0174 41.0403 18.8539 46.9678 20.8196 53.5018C22.7856 60.037 26.8778 67.1644 32.7592 74.4516C44.5218 89.0254 63.4152 104.205 86.6539 116.526C109.893 128.848 133.059 135.969 151.722 137.527C161.054 138.306 169.25 137.694 175.763 135.654C182.274 133.615 187.089 130.153 189.692 125.243C192.296 120.332 192.459 114.405 190.493 107.871C188.527 101.336 184.435 94.2088 178.554 86.9217C166.791 72.3478 147.898 57.1673 124.66 44.8459Z" fill="#084B8C" stroke="#5A5A5A" stroke-width="0.428109"/>
<g filter="url(#filter0_g_1_1409)">
<path fill-rule="evenodd" clip-rule="evenodd" d="M192.039 116.294C191.682 117.74 191.159 119.122 190.464 120.435C179.913 140.333 133.652 136.471 87.1355 111.807C47.0105 90.5328 19.803 60.7301 19.8557 40.1703C14.8022 60.6431 43.1048 93.6791 86.5531 116.716C133.069 141.379 179.331 145.242 189.881 125.343C191.331 122.609 192.031 119.569 192.039 116.294Z" fill="#A4CFF9"/>
</g>
<path d="M110.675 102.683L84.4349 88.7709L73.5825 109.239L85.6225 118.353L99.8221 123.152L110.675 102.683Z" fill="#A4CFF9"/>
<path d="M142.976 44.3151L114.622 29.2821L102.461 54.7734L114.501 63.8876L128.7 68.6859L142.976 44.3151Z" fill="#A4CFF9"/>
<path d="M168.081 114.57L129.006 111.283L144.1 136.763L168.699 143.182L178.429 134.875L168.081 114.57Z" fill="#A4CFF9"/>
<path d="M42.6156 49.5003L67.2625 80.0004L37.7023 81.8038L18.5864 65.0445L20.002 52.3295L42.6156 49.5003Z" fill="#A4CFF9"/>
<path d="M47.9521 6.89728L72.3367 37.6074L42.7622 39.1575L23.7906 22.235L25.315 9.53259L47.9521 6.89728Z" fill="#A4CFF9"/>
<path d="M195.004 83.671L155.878 81.0547L171.407 106.272L196.112 112.268L205.698 103.796L195.004 83.671Z" fill="#A4CFF9"/>
<ellipse cx="81.6146" cy="32.2569" rx="81.6146" ry="32.2569" transform="matrix(-0.883497 -0.468438 -0.468438 0.883497 194.117 88.0724)" fill="#17497A"/>
<path fill-rule="evenodd" clip-rule="evenodd" d="M31.0161 47.4756C31.2667 46.8426 31.5523 46.2229 31.8734 45.6173C43.6157 23.4708 82.1876 28.7264 122.011 49.841C161.834 70.9556 188.768 102.715 176.086 122.08C175.765 122.686 175.412 123.27 175.029 123.832C182.552 104.835 157.986 76.4962 119.447 56.0625C80.9082 35.6287 42.5193 30.5881 31.0161 47.4756Z" fill="#002F5C"/>
<path d="M121.615 50.5884C101.774 40.0682 82.1582 33.742 66.5051 31.9952C58.676 31.1216 51.8828 31.398 46.5635 32.8358C41.246 34.2731 37.482 36.8447 35.5415 40.5046C33.601 44.1645 33.5845 48.7229 35.3786 53.931C37.1733 59.1407 40.7564 64.9186 45.8728 70.9088C56.1021 82.8851 72.3452 95.5714 92.187 106.092C112.029 116.612 131.644 122.938 147.297 124.685C155.126 125.558 161.919 125.282 167.238 123.844C172.555 122.407 176.319 119.835 178.26 116.175C180.2 112.515 180.217 107.957 178.423 102.749C176.628 97.5391 173.046 91.7613 167.929 85.7713C157.7 73.795 141.457 61.1087 121.615 50.5884Z" stroke="#A4CFF9" stroke-width="1.69083"/>
</g>
<defs>
<filter id="filter0_g_1_1409" x="5.11546" y="26.0124" width="201.082" height="126.213" filterUnits="userSpaceOnUse" color-interpolation-filters="sRGB">
<feFlood flood-opacity="0" result="BackgroundImageFix"/>
<feBlend mode="normal" in="SourceGraphic" in2="BackgroundImageFix" result="shape"/>
<feTurbulence type="fractalNoise" baseFrequency="0.99900001287460327 0.99900001287460327" numOctaves="3" seed="9305" />
<feDisplacementMap in="shape" scale="28.315729141235352" xChannelSelector="R" yChannelSelector="G" result="displacedImage" width="100%" height="100%" />
<feMerge result="effect1_texture_1_1409">
<feMergeNode in="displacedImage"/>
</feMerge>
</filter>
</defs>
</svg>
