<svg width="262" height="215" viewBox="0 0 262 215" fill="none" xmlns="http://www.w3.org/2000/svg">
<path fill-rule="evenodd" clip-rule="evenodd" d="M238.044 61.312C238.02 61.2671 237.996 61.2224 237.971 61.1777C237.95 61.1371 237.928 61.0965 237.906 61.056L237.971 61.1777L238.044 61.312Z" fill="#E1F0FF"/>
<mask id="mask0_1_1254" style="mask-type:alpha" maskUnits="userSpaceOnUse" x="23" y="43" width="218" height="143">
<path d="M111.967 71.8388C69.6137 94.2948 39.0558 124.538 31.6225 148.531L23.3089 152.939L32.3737 170.031C32.4179 170.117 32.4626 170.203 32.5081 170.289C45.3813 194.568 101.828 189.855 158.585 159.762C215.342 129.669 250.917 85.5915 238.044 61.312L237.972 61.1777L237.906 61.0561L228.844 43.9619L220.531 48.3698C196.5 41.0594 154.32 49.3827 111.967 71.8388Z" fill="#1E1E1E"/>
</mask>
<g mask="url(#mask0_1_1254)">
<path d="M111.967 71.8388C69.6137 94.2948 39.0558 124.538 31.6225 148.531L23.3089 152.939L32.3737 170.031C32.4179 170.117 32.4626 170.203 32.5081 170.289C45.3813 194.568 101.828 189.855 158.585 159.762C215.342 129.669 250.917 85.5915 238.044 61.312L237.972 61.1777L237.906 61.0561L228.844 43.9619L220.531 48.3698C196.5 41.0594 154.32 49.3827 111.967 71.8388Z" fill="black"/>
<rect x="116.025" y="118.448" width="36.4972" height="80.6971" transform="rotate(-27.9329 116.025 118.448)" fill="#778DA2"/>
<rect x="26.1931" y="143.732" width="36.4972" height="80.6971" transform="rotate(-27.9329 26.1931 143.732)" fill="#778DA2"/>
<rect x="186.577" y="59.9982" width="36.4972" height="80.6971" transform="rotate(-27.9329 186.577 59.9982)" fill="#778DA2"/>
</g>
<mask id="mask1_1_1254" style="mask-type:alpha" maskUnits="userSpaceOnUse" x="20" y="28" width="212" height="141">
<path d="M102.89 54.7188C131.245 39.6848 159.512 30.9974 182.284 29.096C193.671 28.1453 203.671 28.8921 211.618 31.3811C219.563 33.8695 225.437 38.0924 228.614 44.084C231.791 50.0755 231.99 57.3076 229.591 65.2801C227.193 73.2542 222.199 81.9508 215.023 90.8424C200.671 108.625 177.618 127.147 149.263 142.182C120.908 157.216 92.6413 165.903 69.8689 167.804C58.4823 168.755 48.4826 168.008 40.5362 165.519C32.5912 163.03 26.7161 158.808 23.5393 152.816C20.3624 146.825 20.1642 139.592 22.5626 131.62C24.9615 123.646 29.9541 114.949 37.1304 106.058C51.4826 88.2755 74.5349 69.7529 102.89 54.7188Z" fill="#1E1E1E" stroke="#5A5A5A" stroke-width="0.522361"/>
</mask>
<g mask="url(#mask1_1_1254)">
<path d="M102.89 54.7188C131.245 39.6848 159.512 30.9974 182.284 29.096C193.671 28.1453 203.671 28.8921 211.618 31.3811C219.563 33.8695 225.437 38.0924 228.614 44.084C231.791 50.0755 231.99 57.3076 229.591 65.2801C227.193 73.2542 222.199 81.9508 215.023 90.8424C200.671 108.625 177.618 127.147 149.263 142.182C120.908 157.216 92.6413 165.903 69.8689 167.804C58.4823 168.755 48.4826 168.008 40.5362 165.519C32.5912 163.03 26.7161 158.808 23.5393 152.816C20.3624 146.825 20.1642 139.592 22.5626 131.62C24.9615 123.646 29.9541 114.949 37.1304 106.058C51.4826 88.2755 74.5349 69.7529 102.89 54.7188Z" fill="url(#paint0_linear_1_1254)" stroke="#5A5A5A" stroke-width="0.522361"/>
<g filter="url(#filter0_g_1_1254)">
<path fill-rule="evenodd" clip-rule="evenodd" d="M20.6758 141.897C21.1111 143.661 21.7494 145.348 22.5984 146.95C35.4715 171.229 91.918 166.516 148.675 136.423C197.634 110.464 230.831 74.1004 230.767 49.0142C236.933 73.9942 202.4 114.303 149.386 142.412C92.6285 172.505 36.182 177.218 23.3089 152.939C21.5402 149.603 20.686 145.893 20.6758 141.897Z" fill="#4A4A4A"/>
</g>
<path d="M119.954 125.29L151.97 108.315L165.212 133.289L150.521 144.41L133.195 150.264L119.954 125.29Z" fill="#E1F0FF"/>
<path d="M80.5409 54.0715L115.136 35.7288L129.976 66.8322L115.285 77.953L97.9593 83.8077L80.5409 54.0715Z" fill="#E1F0FF"/>
<path d="M49.9078 139.793L97.5866 135.784L79.169 166.873L49.1547 174.704L37.2822 164.569L49.9078 139.793Z" fill="#E1F0FF"/>
<path d="M202.996 60.3983L172.923 97.6133L208.991 99.8137L232.316 79.3646L230.588 63.8503L202.996 60.3983Z" fill="#E1F0FF"/>
<path d="M196.485 8.41595L166.732 45.8872L202.818 47.7786L225.966 27.1304L224.106 11.6314L196.485 8.41595Z" fill="#E1F0FF"/>
<path d="M17.0578 102.092L64.7983 98.8997L45.8507 129.669L15.7066 136.985L4.00955 126.648L17.0578 102.092Z" fill="#E1F0FF"/>
<ellipse cx="124.558" cy="95.5872" rx="99.5828" ry="39.3586" transform="rotate(-27.9329 124.558 95.5872)" fill="#1E1E1E"/>
<path fill-rule="evenodd" clip-rule="evenodd" d="M217.149 57.9279C216.844 57.1556 216.495 56.3994 216.103 55.6605C201.776 28.6383 154.712 35.051 106.121 60.8141C57.5308 86.5773 24.6672 125.329 40.1412 148.957C40.533 149.696 40.9634 150.409 41.4311 151.095C32.2513 127.915 62.2254 93.3377 109.249 68.4053C156.273 43.4729 203.114 37.3225 217.149 57.9279Z" fill="black"/>
<path d="M106.604 61.725C130.815 48.8887 154.748 41.1702 173.848 39.0389C183.401 37.9729 191.689 38.3106 198.18 40.065C204.668 41.8189 209.26 44.9565 211.628 49.422C213.995 53.8877 214.016 59.4492 211.827 65.8038C209.637 72.1606 205.265 79.2109 199.022 86.5199C186.541 101.133 166.722 116.612 142.512 129.449C118.302 142.285 94.3676 150.004 75.2682 152.135C65.7155 153.201 57.4273 152.863 50.937 151.109C44.4487 149.355 39.8559 146.218 37.4882 141.752C35.1205 137.287 35.101 131.725 37.2901 125.37C39.4799 119.013 43.8508 111.963 50.0934 104.654C62.5748 90.0413 82.3943 74.5615 106.604 61.725Z" stroke="#E1F0FF" stroke-width="2.06308"/>
</g>
<defs>
<filter id="filter0_g_1_1254" x="3.40093" y="31.7393" width="245.352" height="154" filterUnits="userSpaceOnUse" color-interpolation-filters="sRGB">
<feFlood flood-opacity="0" result="BackgroundImageFix"/>
<feBlend mode="normal" in="SourceGraphic" in2="BackgroundImageFix" result="shape"/>
<feTurbulence type="fractalNoise" baseFrequency="0.99900001287460327 0.99900001287460327" numOctaves="3" seed="9305" />
<feDisplacementMap in="shape" scale="34.549697875976562" xChannelSelector="R" yChannelSelector="G" result="displacedImage" width="100%" height="100%" />
<feMerge result="effect1_texture_1_1254">
<feMergeNode in="displacedImage"/>
</feMerge>
</filter>
<linearGradient id="paint0_linear_1_1254" x1="102.768" y1="54.4884" x2="149.386" y2="142.412" gradientUnits="userSpaceOnUse">
<stop offset="0.897641" stop-color="#1E1E1E"/>
<stop offset="1" stop-color="#848484"/>
</linearGradient>
</defs>
</svg>
