<svg width="500" height="366" viewBox="0 0 500 366" fill="none" xmlns="http://www.w3.org/2000/svg">
<rect width="227.967" height="330.244" rx="13.2886" transform="matrix(0.973991 0.226587 -0.820114 0.5722 274.226 140.886)" fill="#719BC4"/>
<path d="M205.012 285.874C200.356 277.427 193.546 259.006 209.831 247.643C220.595 240.133 238.703 236.227 251.602 239.228C258.286 240.783 263.094 243.647 264.502 250.956C280.918 247.794 289.479 248.04 296.163 249.595C309.062 252.596 309.717 260.866 298.953 268.377C282.668 279.739 239.664 286.571 219.176 289.169C212.282 290.044 206.579 288.717 205.012 285.874Z" fill="#D41414"/>
<path d="M271.346 162.084L272.567 161.678L283.45 164.21L282.989 164.793L271.346 162.084ZM283.643 172.75C283.776 172.781 283.776 172.843 283.641 172.937C283.506 173.031 283.372 173.063 283.239 173.032C282.465 172.852 281.687 172.65 280.905 172.426C280.15 172.209 279.386 172.01 278.612 171.83C277.758 171.631 276.989 171.473 276.304 171.356C275.646 171.244 274.93 171.099 274.156 170.919C274.049 170.894 274.063 170.834 274.198 170.74C274.333 170.646 274.454 170.612 274.56 170.636C275.867 170.941 276.836 171.009 277.466 170.842C278.119 170.66 278.669 170.14 279.115 169.283L285.572 156.774L288.47 155.943L265.439 164.753C263.375 165.548 262.313 166.252 262.253 166.864C262.215 167.462 263.037 167.956 264.717 168.347C264.851 168.378 264.85 168.44 264.715 168.534C264.58 168.628 264.446 168.66 264.313 168.629C263.513 168.443 262.802 168.256 262.18 168.07C261.558 167.883 260.74 167.672 259.726 167.436C258.739 167.207 257.916 167.036 257.258 166.925C256.626 166.82 255.884 166.668 255.03 166.469C254.923 166.444 254.937 166.385 255.072 166.291C255.207 166.197 255.328 166.162 255.434 166.187C256.155 166.355 256.894 166.422 257.652 166.39C258.432 166.341 259.377 166.154 260.486 165.826C261.622 165.506 263.067 165.006 264.822 164.328L289.887 154.769C289.981 154.728 290.108 154.726 290.268 154.763C290.451 154.785 290.51 154.83 290.447 154.899L283.373 168.769C282.913 169.685 282.595 170.416 282.419 170.96C282.293 171.495 282.333 171.901 282.54 172.179C282.768 172.442 283.136 172.632 283.643 172.75Z" fill="#D41414"/>
<path d="M242.59 186.669C241.145 184.047 239.031 178.331 244.085 174.805C247.426 172.474 253.045 171.262 257.048 172.193C259.122 172.676 260.614 173.564 261.051 175.833C266.146 174.851 268.802 174.928 270.876 175.41C274.879 176.341 275.083 178.908 271.742 181.239C266.689 184.765 253.343 186.885 246.985 187.691C244.846 187.963 243.076 187.551 242.59 186.669Z" fill="#D41414"/>
<path d="M228.306 360.308L227.085 360.713L216.201 358.181L216.662 357.599L228.306 360.308ZM216.009 349.642C215.875 349.611 215.876 349.548 216.011 349.454C216.146 349.36 216.28 349.329 216.413 349.36C217.187 349.54 217.964 349.742 218.746 349.965C219.502 350.183 220.266 350.382 221.04 350.562C221.893 350.76 222.663 350.918 223.348 351.036C224.006 351.147 224.722 351.293 225.496 351.473C225.603 351.498 225.588 351.557 225.454 351.651C225.319 351.745 225.198 351.78 225.092 351.755C223.784 351.451 222.816 351.382 222.185 351.549C221.533 351.732 220.983 352.251 220.537 353.109L214.079 365.618L211.182 366.448L234.213 357.638C236.276 356.844 237.338 356.14 237.399 355.527C237.436 354.93 236.615 354.436 234.935 354.045C234.801 354.014 234.802 353.951 234.937 353.857C235.071 353.763 235.206 353.732 235.339 353.763C236.139 353.949 236.85 354.135 237.472 354.322C238.094 354.508 238.912 354.719 239.926 354.955C240.913 355.185 241.735 355.355 242.394 355.467C243.026 355.572 243.768 355.724 244.622 355.922C244.729 355.947 244.714 356.007 244.58 356.101C244.445 356.195 244.324 356.229 244.218 356.204C243.497 356.037 242.758 355.969 242 356.002C241.219 356.05 240.275 356.238 239.166 356.565C238.03 356.886 236.585 357.386 234.83 358.064L209.765 367.623C209.671 367.664 209.544 367.666 209.384 367.628C209.201 367.607 209.141 367.561 209.205 367.493L216.279 353.623C216.739 352.706 217.057 351.975 217.232 351.431C217.359 350.896 217.319 350.49 217.112 350.212C216.883 349.95 216.515 349.76 216.009 349.642Z" fill="#D41414"/>
<path d="M257.062 335.723C258.507 338.344 260.621 344.061 255.567 347.587C252.226 349.918 246.607 351.13 242.604 350.198C240.53 349.716 239.038 348.827 238.601 346.559C233.506 347.54 230.85 347.464 228.775 346.981C224.772 346.05 224.569 343.484 227.91 341.153C232.963 337.627 246.309 335.507 252.667 334.7C254.806 334.429 256.576 334.841 257.062 335.723Z" fill="#D41414"/>
<mask id="mask0_1_1275" style="mask-type:alpha" maskUnits="userSpaceOnUse" x="9" y="136" width="481" height="237">
<rect width="227.967" height="330.244" rx="11.9777" transform="matrix(0.973991 0.226587 -0.820114 0.5722 274.047 134.221)" fill="#B5E1EC"/>
</mask>
<g mask="url(#mask0_1_1275)">
<rect width="227.967" height="330.244" rx="11.9777" transform="matrix(0.973991 0.226587 -0.820114 0.5722 274.047 134.221)" fill="#E1F0FF"/>
<g opacity="0.1">
<mask id="mask1_1_1275" style="mask-type:alpha" maskUnits="userSpaceOnUse" x="196" y="99" width="191" height="125">
<path d="M274.087 123.941C237.221 143.487 210.623 169.811 204.153 190.695L196.916 194.532L204.807 209.41C204.845 209.485 204.884 209.559 204.924 209.634C216.129 230.767 265.261 226.665 314.664 200.471C364.067 174.278 395.032 135.911 383.827 114.778L383.765 114.661L383.707 114.555L375.82 99.6758L368.584 103.513C347.667 97.1494 310.952 104.394 274.087 123.941Z" fill="black"/>
</mask>
<g mask="url(#mask1_1_1275)">
<path d="M274.087 123.941C237.221 143.487 210.623 169.811 204.153 190.695L196.916 194.532L204.807 209.41C204.845 209.485 204.884 209.559 204.924 209.634C216.129 230.767 265.261 226.665 314.664 200.471C364.067 174.278 395.032 135.911 383.827 114.778L383.765 114.661L383.707 114.555L375.82 99.6758L368.584 103.513C347.667 97.1494 310.952 104.394 274.087 123.941Z" fill="black"/>
<rect x="277.619" y="164.51" width="31.7681" height="70.2408" transform="rotate(-27.9329 277.619 164.51)" fill="black"/>
<rect x="199.427" y="186.518" width="31.7681" height="70.2408" transform="rotate(-27.9329 199.427 186.518)" fill="black"/>
<rect x="339.03" y="113.634" width="31.7681" height="70.2408" transform="rotate(-27.9329 339.03 113.634)" fill="black"/>
</g>
<mask id="mask2_1_1275" style="mask-type:alpha" maskUnits="userSpaceOnUse" x="194" y="86" width="185" height="123">
<ellipse cx="286.368" cy="147.104" rx="101.247" ry="43.3114" transform="rotate(-27.9329 286.368 147.104)" fill="black"/>
</mask>
<g mask="url(#mask2_1_1275)">
<ellipse cx="286.368" cy="147.104" rx="101.247" ry="43.3114" transform="rotate(-27.9329 286.368 147.104)" fill="black"/>
<g filter="url(#filter0_g_1_1275)">
<path fill-rule="evenodd" clip-rule="evenodd" d="M194.625 184.921C195.004 186.457 195.559 187.925 196.298 189.319C207.503 210.452 256.636 206.35 306.039 180.156C348.654 157.561 377.55 125.909 377.494 104.074C382.861 125.817 352.802 160.903 306.657 185.369C257.254 211.563 208.122 215.665 196.917 194.532C195.377 191.628 194.634 188.399 194.625 184.921Z" fill="black"/>
</g>
<path d="M281.039 170.466L308.907 155.69L320.433 177.429L307.645 187.108L292.565 192.204L281.039 170.466Z" fill="black"/>
<path d="M246.733 108.476L276.846 92.5096L289.762 119.583L276.975 129.263L261.894 134.359L246.733 108.476Z" fill="black"/>
<path d="M220.069 183.09L261.57 179.6L245.539 206.661L219.414 213.477L209.079 204.655L220.069 183.09Z" fill="black"/>
<path d="M353.321 113.982L327.145 146.375L358.539 148.291L378.842 130.491L377.338 116.987L353.321 113.982Z" fill="black"/>
<path d="M191.476 150.274L233.03 147.495L216.538 174.277L190.299 180.646L180.118 171.648L191.476 150.274Z" fill="black"/>
<ellipse cx="285.047" cy="144.612" rx="86.6795" ry="34.2587" transform="rotate(-27.9329 285.047 144.612)" fill="black"/>
<path fill-rule="evenodd" clip-rule="evenodd" d="M365.641 111.832C365.374 111.16 365.071 110.502 364.73 109.858C352.259 86.3376 311.293 91.9194 268.999 114.344C226.704 136.769 198.099 170.5 211.568 191.066C211.909 191.71 212.284 192.33 212.691 192.928C204.7 172.751 230.791 142.654 271.721 120.952C312.652 99.2501 353.424 93.8966 365.641 111.832Z" fill="black"/>
<ellipse cx="285.047" cy="144.612" rx="86.6795" ry="34.2587" transform="rotate(-27.9329 285.047 144.612)" fill="black"/>
</g>
</g>
<path d="M204.833 279.209C200.177 270.762 193.367 252.341 209.653 240.978C220.417 233.468 238.524 229.563 251.423 232.563C258.107 234.118 262.915 236.982 264.323 244.291C280.74 241.129 289.3 241.375 295.984 242.93C308.883 245.931 309.539 254.201 298.774 261.712C282.489 273.074 239.485 279.906 218.997 282.504C212.103 283.379 206.4 282.052 204.833 279.209Z" fill="#D41414"/>
<path d="M271.167 155.419L272.389 155.014L283.272 157.545L282.811 158.128L271.167 155.419ZM283.465 166.085C283.598 166.116 283.597 166.178 283.463 166.272C283.328 166.366 283.194 166.398 283.06 166.367C282.287 166.187 281.509 165.985 280.727 165.761C279.972 165.544 279.207 165.345 278.434 165.165C277.58 164.966 276.811 164.808 276.126 164.691C275.467 164.579 274.751 164.434 273.978 164.254C273.871 164.229 273.885 164.169 274.02 164.075C274.154 163.981 274.275 163.947 274.382 163.972C275.689 164.276 276.658 164.344 277.288 164.177C277.941 163.995 278.49 163.475 278.937 162.618L285.394 150.109L288.291 149.278L265.261 158.088C263.197 158.883 262.135 159.587 262.075 160.199C262.037 160.797 262.858 161.291 264.539 161.682C264.672 161.713 264.671 161.775 264.537 161.869C264.402 161.963 264.268 161.995 264.134 161.964C263.334 161.778 262.623 161.591 262.001 161.405C261.379 161.218 260.561 161.007 259.548 160.771C258.561 160.542 257.738 160.371 257.08 160.26C256.448 160.155 255.705 160.003 254.852 159.804C254.745 159.779 254.759 159.72 254.894 159.626C255.028 159.532 255.149 159.497 255.256 159.522C255.976 159.69 256.715 159.757 257.473 159.725C258.254 159.676 259.199 159.489 260.308 159.161C261.443 158.841 262.889 158.341 264.644 157.663L289.709 148.104C289.803 148.063 289.93 148.061 290.09 148.098C290.272 148.12 290.332 148.165 290.269 148.234L283.195 162.104C282.734 163.02 282.416 163.751 282.241 164.295C282.115 164.83 282.155 165.236 282.361 165.514C282.59 165.777 282.958 165.967 283.465 166.085Z" fill="#D41414"/>
<path d="M242.411 180.004C240.966 177.382 238.853 171.666 243.907 168.14C247.247 165.809 252.866 164.597 256.869 165.528C258.944 166.011 260.436 166.9 260.873 169.168C265.967 168.186 268.624 168.263 270.698 168.745C274.701 169.677 274.904 172.243 271.564 174.574C266.51 178.1 253.165 180.22 246.807 181.026C244.667 181.298 242.897 180.886 242.411 180.004Z" fill="#D41414"/>
<path d="M228.128 353.643L226.906 354.048L216.023 351.516L216.484 350.934L228.128 353.643ZM215.83 342.977C215.697 342.946 215.698 342.884 215.832 342.79C215.967 342.696 216.101 342.664 216.234 342.695C217.008 342.875 217.786 343.077 218.568 343.301C219.323 343.518 220.088 343.717 220.861 343.897C221.715 344.095 222.484 344.254 223.169 344.371C223.828 344.483 224.544 344.628 225.317 344.808C225.424 344.833 225.41 344.892 225.275 344.986C225.14 345.08 225.02 345.115 224.913 345.09C223.606 344.786 222.637 344.718 222.007 344.884C221.354 345.067 220.805 345.587 220.358 346.444L213.901 358.953L211.003 359.783L234.034 350.974C236.098 350.179 237.16 349.475 237.22 348.862C237.258 348.265 236.437 347.771 234.756 347.38C234.623 347.349 234.623 347.287 234.758 347.193C234.893 347.099 235.027 347.067 235.16 347.098C235.961 347.284 236.672 347.471 237.294 347.657C237.916 347.844 238.733 348.055 239.747 348.29C240.734 348.52 241.557 348.691 242.215 348.802C242.847 348.907 243.59 349.059 244.443 349.258C244.55 349.282 244.536 349.342 244.401 349.436C244.266 349.53 244.146 349.564 244.039 349.54C243.319 349.372 242.58 349.305 241.822 349.337C241.041 349.386 240.096 349.573 238.987 349.9C237.851 350.221 236.406 350.721 234.651 351.399L209.586 360.958C209.492 360.999 209.365 361.001 209.205 360.964C209.023 360.942 208.963 360.897 209.026 360.828L216.1 346.958C216.561 346.041 216.878 345.311 217.054 344.766C217.18 344.232 217.14 343.825 216.934 343.547C216.705 343.285 216.337 343.095 215.83 342.977Z" fill="#D41414"/>
<path d="M256.884 329.058C258.329 331.679 260.442 337.396 255.388 340.922C252.048 343.253 246.429 344.465 242.426 343.533C240.351 343.051 238.859 342.162 238.422 339.894C233.328 340.875 230.671 340.799 228.597 340.316C224.594 339.385 224.391 336.818 227.731 334.488C232.785 330.962 246.13 328.841 252.488 328.035C254.628 327.764 256.398 328.176 256.884 329.058Z" fill="#D41414"/>
</g>
<defs>
<filter id="filter0_g_1_1275" x="179.588" y="89.0371" width="213.561" height="134.045" filterUnits="userSpaceOnUse" color-interpolation-filters="sRGB">
<feFlood flood-opacity="0" result="BackgroundImageFix"/>
<feBlend mode="normal" in="SourceGraphic" in2="BackgroundImageFix" result="shape"/>
<feTurbulence type="fractalNoise" baseFrequency="0.99900001287460327 0.99900001287460327" numOctaves="3" seed="9305" />
<feDisplacementMap in="shape" scale="30.072961807250977" xChannelSelector="R" yChannelSelector="G" result="displacedImage" width="100%" height="100%" />
<feMerge result="effect1_texture_1_1275">
<feMergeNode in="displacedImage"/>
</feMerge>
</filter>
</defs>
</svg>
