<svg preserveAspectRatio="none" width="100%" height="100%" overflow="visible" style="display: block;" viewBox="0 0 551.976 282.523" fill="none" xmlns="http://www.w3.org/2000/svg">
<g id="Group 1707481288" opacity="0.4">
<path id="Ellipse 12" fill-rule="evenodd" clip-rule="evenodd" d="M543.976 167.883C543.976 167.766 543.975 167.649 543.974 167.532C543.973 167.426 543.973 167.32 543.971 167.213L543.974 167.532L543.976 167.883Z" fill="var(--fill-0, #E1F0FF)"/>
<g id="Group 1707481287">
<mask id="mask0_0_4" style="mask-type:alpha" maskUnits="userSpaceOnUse" x="7" y="53" width="537" height="230">
<path id="Rectangle 100" d="M275.987 53.2443C165.543 53.2443 70.7035 81.8246 29.6792 122.639L7.99979 122.639L8.00449 167.213C8.00156 167.436 7.99979 167.66 7.99979 167.883C7.99979 231.197 127.982 282.523 275.987 282.523C423.993 282.523 543.976 231.197 543.976 167.883L543.974 167.532L543.971 167.213L543.976 122.639H522.296C481.272 81.8246 386.432 53.2443 275.987 53.2443Z" fill="var(--fill-0, #1E1E1E)"/>
</mask>
<g mask="url(#mask0_0_4)">
<path id="Rectangle 102" d="M275.987 53.2443C165.543 53.2443 70.7035 81.8246 29.6792 122.639L7.99979 122.639L8.00449 167.213C8.00156 167.436 7.99979 167.66 7.99979 167.883C7.99979 231.197 127.982 282.523 275.987 282.523C423.993 282.523 543.976 231.197 543.976 167.883L543.974 167.532L543.971 167.213L543.976 122.639H522.296C481.272 81.8246 386.432 53.2443 275.987 53.2443Z" fill="var(--fill-0, black)"/>
<rect id="Rectangle 101" x="233.945" y="152.496" width="84.0858" height="185.918" fill="var(--fill-0, #778DA2)"/>
<rect id="Rectangle 103" x="23.8065" y="107.011" width="84.0858" height="185.918" fill="var(--fill-0, #778DA2)"/>
<rect id="Rectangle 104" x="440.635" y="109.665" width="84.0858" height="185.918" fill="var(--fill-0, #778DA2)"/>
</g>
</g>
<g id="Mask group" filter="url(#filter0_f_0_4)">
<mask id="mask1_0_4" style="mask-type:alpha" maskUnits="userSpaceOnUse" x="8" y="8" width="536" height="230">
<path id="Ellipse 11" d="M275.988 8.60156C349.929 8.6016 416.842 21.4234 465.247 42.1299C489.451 52.4836 509 64.7972 522.488 78.4395C535.974 92.0791 543.374 107.015 543.374 122.64C543.374 138.264 535.974 153.199 522.488 166.839C509 180.481 489.451 192.795 465.247 203.148C416.842 223.855 349.929 236.677 275.988 236.677C202.047 236.677 135.134 223.855 86.7285 203.148C62.5249 192.795 42.9761 180.481 29.4873 166.839C16.0013 153.199 8.6017 138.264 8.60156 122.64C8.60156 107.015 16.0012 92.0791 29.4873 78.4395C42.9761 64.7972 62.5249 52.4836 86.7285 42.1299C135.134 21.4233 202.047 8.60156 275.988 8.60156Z" fill="var(--fill-0, #1E1E1E)" stroke="var(--stroke-0, #5A5A5A)" stroke-width="1.20347"/>
</mask>
<g mask="url(#mask1_0_4)">
<path id="Ellipse 14" d="M275.988 8.60156C349.929 8.6016 416.842 21.4234 465.247 42.1299C489.451 52.4836 509 64.7972 522.488 78.4395C535.974 92.0791 543.374 107.015 543.374 122.64C543.374 138.264 535.974 153.199 522.488 166.839C509 180.481 489.451 192.795 465.247 203.148C416.842 223.855 349.929 236.677 275.988 236.677C202.047 236.677 135.134 223.855 86.7285 203.148C62.5249 192.795 42.9761 180.481 29.4873 166.839C16.0013 153.199 8.6017 138.264 8.60156 122.64C8.60156 107.015 16.0012 92.0791 29.4873 78.4395C42.9761 64.7972 62.5249 52.4836 86.7285 42.1299C135.134 21.4233 202.047 8.60156 275.988 8.60156Z" fill="url(#paint0_linear_0_4)" stroke="var(--stroke-0, #5A5A5A)" stroke-width="1.20347"/>
<g id="Ellipse 17" filter="url(#filter1_g_0_4)">
<path fill-rule="evenodd" clip-rule="evenodd" d="M14.5565 97.3229C13.5392 101.383 13.0173 105.506 13.0173 109.682C13.0173 172.995 133 224.321 281.005 224.321C408.675 224.321 515.494 186.13 542.437 134.998C528.028 192.499 414.233 237.278 275.988 237.278C127.982 237.278 8 185.953 8 122.639C8 113.94 10.265 105.467 14.5565 97.3229Z" fill="var(--fill-0, #4A4A4A)"/>
</g>
<path id="Rectangle 101_2" d="M234.558 170.663L318.048 170.663V235.789L276.143 242.571L234.558 235.789L234.558 170.663Z" fill="var(--fill-0, #E1F0FF)"/>
<path id="Rectangle 107" d="M231.197 -16.836L321.411 -16.8357L318.049 62.49L276.144 69.2716L234.559 62.49L231.197 -16.836Z" fill="var(--fill-0, #E1F0FF)"/>
<path id="Rectangle 105" d="M76.3289 124.589L177.706 167.884L106.665 211.288L37.1187 194.837L23.8908 161.394L76.3289 124.589Z" fill="var(--fill-0, #E1F0FF)"/>
<path id="Rectangle 106" d="M473.623 128.199L372.246 171.493L443.287 214.898L512.833 198.447L526.061 165.004L473.623 128.199Z" fill="var(--fill-0, #E1F0FF)"/>
<path id="Rectangle 108" d="M516.472 15.3633L415.47 59.5249L486.88 102.32L556.282 85.2731L569.223 51.7177L516.472 15.3633Z" fill="var(--fill-0, #E1F0FF)"/>
<path id="Rectangle 109" d="M50.1515 12.3954L150.772 57.4207L78.9972 99.602L9.74345 81.9615L-2.90956 48.2965L50.1515 12.3954Z" fill="var(--fill-0, #E1F0FF)"/>
<ellipse id="Ellipse 13" cx="275.987" cy="115.173" rx="229.429" ry="90.6781" fill="var(--fill-0, #1E1E1E)"/>
<path id="Ellipse 16" fill-rule="evenodd" clip-rule="evenodd" d="M505.098 138.445C505.309 136.543 505.415 134.628 505.415 132.701C505.415 62.2348 402.697 24.4949 275.987 24.4949C149.277 24.4949 40.5618 67.9054 46.5583 132.701C46.5583 134.628 46.6651 136.543 46.8761 138.445C53.2076 81.3552 151.537 43.3223 274.161 43.3223C396.785 43.3223 498.766 81.3552 505.098 138.445Z" fill="var(--fill-0, black)"/>
<path id="Ellipse 15" d="M275.987 26.8717C339.12 26.8717 396.167 36.9899 437.344 53.2643C457.939 61.4043 474.446 71.0371 485.763 81.6129C497.077 92.1851 503.039 103.527 503.039 115.172C503.039 126.818 497.077 138.16 485.763 148.732C474.446 159.308 457.939 168.942 437.344 177.082C396.167 193.356 339.12 203.474 275.987 203.474C212.854 203.474 155.806 193.356 114.63 177.082C94.0345 168.942 77.5285 159.308 66.2108 148.732C54.8968 138.16 48.9354 126.818 48.9354 115.172C48.9355 103.527 54.8969 92.1851 66.2108 81.6129C77.5285 71.0373 94.0347 61.4042 114.63 53.2643C155.806 36.9899 212.854 26.8717 275.987 26.8717Z" stroke="var(--stroke-0, #E1F0FF)" stroke-width="4.75312"/>
</g>
</g>
</g>
<defs>
<filter id="filter0_f_0_4" x="-9.56643e-08" y="9.63119e-08" width="551.976" height="245.278" filterUnits="userSpaceOnUse" color-interpolation-filters="sRGB">
<feFlood flood-opacity="0" result="BackgroundImageFix"/>
<feBlend mode="normal" in="SourceGraphic" in2="BackgroundImageFix" result="shape"/>
<feGaussianBlur stdDeviation="4" result="effect1_foregroundBlur_0_4"/>
</filter>
<filter id="filter1_g_0_4" x="-31.7995" y="-31.7995" width="615.575" height="308.877" filterUnits="userSpaceOnUse" color-interpolation-filters="sRGB">
<feFlood flood-opacity="0" result="BackgroundImageFix"/>
<feBlend mode="normal" in="SourceGraphic" in2="BackgroundImageFix" result="shape"/>
<feTurbulence type="fractalNoise" baseFrequency="0.55855226516723633 0.55855226516723633" numOctaves="3" seed="9305" />
<feDisplacementMap in="shape" scale="79.598960876464844" xChannelSelector="R" yChannelSelector="G" result="displacedImage" width="100%" height="100%" />
<feMerge result="effect1_texture_0_4">
<feMergeNode in="displacedImage"/>
</feMerge>
</filter>
<linearGradient id="paint0_linear_0_4" x1="275.988" y1="8" x2="275.988" y2="237.278" gradientUnits="userSpaceOnUse">
<stop offset="0.897641" stop-color="#1E1E1E"/>
<stop offset="1" stop-color="#848484"/>
</linearGradient>
</defs>
</svg>
