<svg preserveAspectRatio="none" width="100%" height="100%" overflow="visible" style="display: block;" viewBox="0 0 179.69 36" fill="none" xmlns="http://www.w3.org/2000/svg">
<g id="Frame 48096408">
<g id="Subtract">
<path d="M30.1332 35.8228C29.2069 35.9394 28.263 36 27.305 36C26.4312 36 25.5692 35.9497 24.7215 35.8524L27.4286 0L30.1332 35.8228Z" fill="url(#paint0_linear_0_4)"/>
<path d="M0 13.8082C12.0892 13.8082 21.9253 23.4335 22.2319 35.4231C20.2414 34.9623 18.3528 34.2364 16.6055 33.2845C15.3624 24.4065 8.40127 13.8082 0 13.8082Z" fill="url(#paint1_linear_0_4)"/>
<path d="M54.8571 13.8082C46.5028 13.8082 39.5724 24.2886 38.2729 33.1357C36.5235 34.1201 34.6281 34.8763 32.6269 35.3638C32.9644 23.4018 42.7879 13.8082 54.8571 13.8082Z" fill="url(#paint2_linear_0_4)"/>
</g>
<g id="Frame 1707481349">
<g id="Roll High Club">
<path d="M75.0275 26.6082C75.0584 26.6082 75.0738 26.639 75.0738 26.7007C75.0738 26.7624 75.0584 26.7933 75.0275 26.7933H72.5435C72.307 26.7933 71.8647 26.3819 71.2167 25.559C70.579 24.7362 69.8024 23.5842 68.887 22.103C68.6607 22.1236 68.4858 22.1339 68.3624 22.1339C68.1361 22.1339 67.8687 22.1236 67.5601 22.103V25.5436C67.5601 25.8624 67.5858 26.0939 67.6373 26.2379C67.699 26.3819 67.807 26.4796 67.9613 26.531C68.1258 26.5824 68.383 26.6082 68.7327 26.6082C68.7533 26.6082 68.7635 26.639 68.7635 26.7007C68.7635 26.7624 68.7533 26.7933 68.7327 26.7933C68.3933 26.7933 68.131 26.7882 67.9458 26.7779L66.8041 26.7624L65.6933 26.7779C65.4978 26.7882 65.2304 26.7933 64.891 26.7933C64.8601 26.7933 64.8447 26.7624 64.8447 26.7007C64.8447 26.639 64.8601 26.6082 64.891 26.6082C65.2407 26.6082 65.4927 26.5824 65.647 26.531C65.8115 26.4796 65.9247 26.3819 65.9864 26.2379C66.0481 26.0836 66.079 25.8522 66.079 25.5436V18.4002C66.079 18.0916 66.0481 17.8653 65.9864 17.7213C65.935 17.5773 65.827 17.4796 65.6624 17.4282C65.4978 17.3664 65.2458 17.3356 64.9064 17.3356C64.8858 17.3356 64.8755 17.3047 64.8755 17.243C64.8755 17.1813 64.8858 17.1504 64.9064 17.1504L65.7087 17.1659C66.1613 17.1864 66.5264 17.1967 66.8041 17.1967C67.1435 17.1967 67.5138 17.1813 67.915 17.1504C68.0487 17.1402 68.2081 17.1299 68.3933 17.1196C68.5887 17.1093 68.8047 17.1042 69.0413 17.1042C69.9361 17.1042 70.6253 17.279 71.1087 17.6287C71.6024 17.9784 71.8493 18.467 71.8493 19.0944C71.8493 19.6602 71.6898 20.1693 71.371 20.6219C71.0624 21.0744 70.6458 21.4344 70.1213 21.7019C70.9647 22.9464 71.6693 23.9184 72.235 24.6179C72.8007 25.3173 73.2995 25.8264 73.7315 26.1453C74.1738 26.4539 74.6058 26.6082 75.0275 26.6082ZM67.5601 21.6864C67.807 21.7276 68.1053 21.7482 68.455 21.7482C69.1235 21.7482 69.6018 21.5836 69.8898 21.2544C70.1778 20.915 70.3218 20.375 70.3218 19.6344C70.3218 18.8013 70.1778 18.2202 69.8898 17.891C69.6121 17.5619 69.2058 17.3973 68.671 17.3973C68.2698 17.3973 67.9818 17.4744 67.807 17.6287C67.6424 17.7727 67.5601 18.0402 67.5601 18.431V21.6864Z" fill="var(--fill-0, #DCB146)"/>
<path d="M79.2018 26.9784C78.2452 26.9784 77.3915 26.7573 76.6407 26.315C75.9001 25.8624 75.3241 25.2556 74.9127 24.4944C74.5115 23.723 74.311 22.8847 74.311 21.9796C74.311 20.9202 74.5784 20.015 75.1132 19.2642C75.6481 18.503 76.3321 17.9322 77.1652 17.5516C78.0087 17.171 78.8675 16.9807 79.7418 16.9807C80.719 16.9807 81.5778 17.2122 82.3184 17.675C83.059 18.1276 83.6247 18.7293 84.0155 19.4802C84.4167 20.231 84.6172 21.0282 84.6172 21.8716C84.6172 22.8076 84.3704 23.6664 83.8767 24.4482C83.383 25.2299 82.7195 25.847 81.8864 26.2996C81.0635 26.7522 80.1687 26.9784 79.2018 26.9784ZM79.7264 26.6082C80.3435 26.6082 80.8938 26.4436 81.3772 26.1144C81.871 25.775 82.2567 25.2813 82.5344 24.6333C82.8224 23.9853 82.9664 23.2139 82.9664 22.319C82.9664 21.3727 82.807 20.5242 82.4881 19.7733C82.1795 19.0224 81.7321 18.4362 81.1458 18.0144C80.5698 17.5927 79.891 17.3819 79.1092 17.3819C78.1115 17.3819 77.335 17.7419 76.7795 18.4619C76.2344 19.1716 75.9618 20.159 75.9618 21.4242C75.9618 22.4013 76.1212 23.2859 76.4401 24.0779C76.7692 24.8699 77.2167 25.4922 77.7824 25.9447C78.3584 26.387 79.0064 26.6082 79.7264 26.6082Z" fill="var(--fill-0, #DCB146)"/>
<path d="M87.8977 25.4819C87.8977 25.7596 87.9183 25.9602 87.9595 26.0836C88.0109 26.207 88.1035 26.2893 88.2372 26.3304C88.3709 26.3716 88.5869 26.3922 88.8852 26.3922H89.8109C90.5412 26.3922 91.1583 26.1916 91.6623 25.7904C92.1663 25.379 92.5006 24.8287 92.6652 24.1396C92.6755 24.1087 92.7063 24.0984 92.7577 24.1087C92.8092 24.1087 92.8349 24.1242 92.8349 24.155C92.7423 25.1219 92.696 25.9242 92.696 26.5619C92.696 26.6442 92.6806 26.7059 92.6497 26.747C92.6189 26.7779 92.5572 26.7933 92.4646 26.7933H85.244C85.2235 26.7933 85.2132 26.7624 85.2132 26.7007C85.2132 26.639 85.2235 26.6082 85.244 26.6082C85.5937 26.6082 85.8457 26.5824 86 26.531C86.1646 26.4796 86.2726 26.3819 86.324 26.2379C86.3857 26.0836 86.4166 25.8522 86.4166 25.5436V18.4002C86.4166 18.0916 86.3857 17.8653 86.324 17.7213C86.2726 17.5773 86.1646 17.4796 86 17.4282C85.8355 17.3664 85.5835 17.3356 85.244 17.3356C85.2235 17.3356 85.2132 17.3047 85.2132 17.243C85.2132 17.1813 85.2235 17.1504 85.244 17.1504L86.0309 17.1659C86.4835 17.1864 86.8537 17.1967 87.1417 17.1967C87.4503 17.1967 87.8309 17.1864 88.2835 17.1659L89.0549 17.1504C89.0857 17.1504 89.1012 17.1813 89.1012 17.243C89.1012 17.3047 89.0857 17.3356 89.0549 17.3356C88.7155 17.3356 88.4635 17.3664 88.2989 17.4282C88.1446 17.4796 88.0366 17.5824 87.9749 17.7367C87.9235 17.8807 87.8977 18.107 87.8977 18.4156V25.4819Z" fill="var(--fill-0, #DCB146)"/>
<path d="M95.6277 25.4819C95.6277 25.7596 95.6483 25.9602 95.6894 26.0836C95.7408 26.207 95.8334 26.2893 95.9671 26.3304C96.1008 26.3716 96.3168 26.3922 96.6151 26.3922H97.5408C98.2711 26.3922 98.8883 26.1916 99.3923 25.7904C99.8963 25.379 100.231 24.8287 100.395 24.1396C100.405 24.1087 100.436 24.0984 100.488 24.1087C100.539 24.1087 100.565 24.1242 100.565 24.155C100.472 25.1219 100.426 25.9242 100.426 26.5619C100.426 26.6442 100.411 26.7059 100.38 26.747C100.349 26.7779 100.287 26.7933 100.195 26.7933H92.974C92.9534 26.7933 92.9431 26.7624 92.9431 26.7007C92.9431 26.639 92.9534 26.6082 92.974 26.6082C93.3237 26.6082 93.5757 26.5824 93.73 26.531C93.8946 26.4796 94.0026 26.3819 94.054 26.2379C94.1157 26.0836 94.1466 25.8522 94.1466 25.5436V18.4002C94.1466 18.0916 94.1157 17.8653 94.054 17.7213C94.0026 17.5773 93.8946 17.4796 93.73 17.4282C93.5654 17.3664 93.3134 17.3356 92.974 17.3356C92.9534 17.3356 92.9431 17.3047 92.9431 17.243C92.9431 17.1813 92.9534 17.1504 92.974 17.1504L93.7608 17.1659C94.2134 17.1864 94.5837 17.1967 94.8717 17.1967C95.1803 17.1967 95.5608 17.1864 96.0134 17.1659L96.7848 17.1504C96.8157 17.1504 96.8311 17.1813 96.8311 17.243C96.8311 17.3047 96.8157 17.3356 96.7848 17.3356C96.4454 17.3356 96.1934 17.3664 96.0288 17.4282C95.8746 17.4796 95.7666 17.5824 95.7048 17.7367C95.6534 17.8807 95.6277 18.107 95.6277 18.4156V25.4819Z" fill="var(--fill-0, #DCB146)"/>
<path d="M114.457 26.6082C114.487 26.6082 114.503 26.639 114.503 26.7007C114.503 26.7624 114.487 26.7933 114.457 26.7933C114.107 26.7933 113.824 26.7882 113.608 26.7779L112.482 26.7624L111.17 26.7779C110.985 26.7882 110.738 26.7933 110.43 26.7933C110.399 26.7933 110.383 26.7624 110.383 26.7007C110.383 26.639 110.399 26.6082 110.43 26.6082C110.821 26.6082 111.103 26.5824 111.278 26.531C111.453 26.4796 111.571 26.3819 111.633 26.2379C111.695 26.0939 111.726 25.8624 111.726 25.5436V21.9796H106.434V25.5436C106.434 25.8522 106.465 26.0836 106.526 26.2379C106.588 26.3819 106.706 26.4796 106.881 26.531C107.066 26.5824 107.354 26.6082 107.745 26.6082C107.766 26.6082 107.776 26.639 107.776 26.7007C107.776 26.7624 107.766 26.7933 107.745 26.7933C107.395 26.7933 107.123 26.7882 106.927 26.7779L105.647 26.7624L104.521 26.7779C104.325 26.7882 104.053 26.7933 103.703 26.7933C103.682 26.7933 103.672 26.7624 103.672 26.7007C103.672 26.639 103.682 26.6082 103.703 26.6082C104.073 26.6082 104.346 26.5824 104.521 26.531C104.695 26.4796 104.814 26.3819 104.875 26.2379C104.937 26.0836 104.968 25.8522 104.968 25.5436V18.4002C104.968 18.0916 104.937 17.8653 104.875 17.7213C104.814 17.5773 104.695 17.4796 104.521 17.4282C104.346 17.3664 104.078 17.3356 103.718 17.3356C103.698 17.3356 103.687 17.3047 103.687 17.243C103.687 17.1813 103.698 17.1504 103.718 17.1504L104.536 17.1659C105.009 17.1864 105.379 17.1967 105.647 17.1967C106.007 17.1967 106.434 17.1864 106.927 17.1659L107.745 17.1504C107.766 17.1504 107.776 17.1813 107.776 17.243C107.776 17.3047 107.766 17.3356 107.745 17.3356C107.365 17.3356 107.082 17.3664 106.897 17.4282C106.722 17.4899 106.598 17.5979 106.526 17.7522C106.465 17.8962 106.434 18.1224 106.434 18.431V21.5784H111.726V18.431C111.726 18.1224 111.695 17.8962 111.633 17.7522C111.571 17.5979 111.448 17.4899 111.263 17.4282C111.088 17.3664 110.81 17.3356 110.43 17.3356C110.399 17.3356 110.383 17.3047 110.383 17.243C110.383 17.1813 110.399 17.1504 110.43 17.1504L111.17 17.1659C111.664 17.1864 112.101 17.1967 112.482 17.1967C112.759 17.1967 113.135 17.1864 113.608 17.1659L114.457 17.1504C114.487 17.1504 114.503 17.1813 114.503 17.243C114.503 17.3047 114.487 17.3356 114.457 17.3356C114.086 17.3356 113.814 17.3664 113.639 17.4282C113.474 17.4796 113.361 17.5773 113.299 17.7213C113.238 17.8653 113.207 18.0916 113.207 18.4002V25.5436C113.207 25.8522 113.238 26.0836 113.299 26.2379C113.361 26.3819 113.474 26.4796 113.639 26.531C113.814 26.5824 114.086 26.6082 114.457 26.6082Z" fill="var(--fill-0, #DCB146)"/>
<path d="M117.708 25.5436C117.708 25.8624 117.733 26.0939 117.785 26.2379C117.836 26.3819 117.939 26.4796 118.093 26.531C118.258 26.5824 118.515 26.6082 118.865 26.6082C118.896 26.6082 118.911 26.639 118.911 26.7007C118.911 26.7624 118.896 26.7933 118.865 26.7933C118.536 26.7933 118.273 26.7882 118.078 26.7779L116.936 26.7624L115.825 26.7779C115.63 26.7882 115.363 26.7933 115.023 26.7933C114.992 26.7933 114.977 26.7624 114.977 26.7007C114.977 26.639 114.992 26.6082 115.023 26.6082C115.373 26.6082 115.625 26.5824 115.779 26.531C115.944 26.4796 116.057 26.3819 116.119 26.2379C116.18 26.0836 116.211 25.8522 116.211 25.5436V18.4002C116.211 18.0916 116.18 17.8653 116.119 17.7213C116.057 17.5773 115.944 17.4796 115.779 17.4282C115.625 17.3664 115.373 17.3356 115.023 17.3356C114.992 17.3356 114.977 17.3047 114.977 17.243C114.977 17.1813 114.992 17.1504 115.023 17.1504L115.825 17.1659C116.278 17.1864 116.648 17.1967 116.936 17.1967C117.255 17.1967 117.641 17.1864 118.093 17.1659L118.865 17.1504C118.896 17.1504 118.911 17.1813 118.911 17.243C118.911 17.3047 118.896 17.3356 118.865 17.3356C118.525 17.3356 118.273 17.3664 118.109 17.4282C117.955 17.4899 117.847 17.5979 117.785 17.7522C117.733 17.8962 117.708 18.1224 117.708 18.431V25.5436Z" fill="var(--fill-0, #DCB146)"/>
<path d="M125.389 26.9784C124.227 26.9784 123.214 26.7573 122.35 26.315C121.496 25.8727 120.843 25.2762 120.39 24.5253C119.938 23.7642 119.711 22.9207 119.711 21.995C119.711 21.0076 119.968 20.1333 120.483 19.3722C120.997 18.611 121.707 18.0247 122.612 17.6133C123.517 17.1916 124.53 16.9807 125.651 16.9807C126.166 16.9807 126.664 17.0219 127.148 17.1042C127.642 17.1864 128.043 17.3047 128.351 17.459C128.444 17.5002 128.495 17.5362 128.506 17.567C128.526 17.5979 128.542 17.6802 128.552 17.8139L128.752 19.8504C128.752 19.8813 128.722 19.9019 128.66 19.9122C128.608 19.9224 128.578 19.907 128.567 19.8659C128.351 19.2179 127.955 18.6264 127.379 18.0916C126.803 17.5464 126.063 17.2739 125.158 17.2739C124.448 17.2739 123.8 17.4539 123.214 17.8139C122.638 18.1739 122.18 18.6933 121.84 19.3722C121.511 20.0407 121.347 20.8173 121.347 21.7019C121.347 22.6379 121.527 23.4916 121.887 24.263C122.257 25.0242 122.776 25.6259 123.445 26.0682C124.124 26.5104 124.9 26.7316 125.775 26.7316C126.217 26.7316 126.562 26.6802 126.808 26.5773C127.055 26.4744 127.235 26.2893 127.348 26.0219C127.462 25.7544 127.518 25.3636 127.518 24.8493C127.518 24.3144 127.487 23.9442 127.426 23.7384C127.364 23.5224 127.225 23.3784 127.009 23.3064C126.803 23.2344 126.438 23.1984 125.914 23.1984C125.852 23.1984 125.821 23.1573 125.821 23.075C125.821 23.0442 125.826 23.0184 125.836 22.9979C125.857 22.967 125.878 22.9516 125.898 22.9516C126.752 23.003 127.436 23.0287 127.95 23.0287C128.464 23.0287 128.999 23.0133 129.555 22.9824C129.575 22.9824 129.591 22.9979 129.601 23.0287C129.622 23.0493 129.632 23.0699 129.632 23.0904C129.632 23.1624 129.606 23.1984 129.555 23.1984C129.349 23.1882 129.205 23.2242 129.123 23.3064C129.04 23.3784 128.984 23.5327 128.953 23.7693C128.932 24.0059 128.922 24.4173 128.922 25.0036C128.922 25.4664 128.938 25.7956 128.968 25.991C129.01 26.1864 129.03 26.3099 129.03 26.3613C129.03 26.423 129.02 26.4642 128.999 26.4847C128.979 26.5053 128.932 26.5259 128.86 26.5464C127.564 26.8344 126.407 26.9784 125.389 26.9784Z" fill="var(--fill-0, #DCB146)"/>
<path d="M140.765 26.6082C140.796 26.6082 140.812 26.639 140.812 26.7007C140.812 26.7624 140.796 26.7933 140.765 26.7933C140.416 26.7933 140.133 26.7882 139.917 26.7779L138.79 26.7624L137.479 26.7779C137.294 26.7882 137.047 26.7933 136.738 26.7933C136.708 26.7933 136.692 26.7624 136.692 26.7007C136.692 26.639 136.708 26.6082 136.738 26.6082C137.129 26.6082 137.412 26.5824 137.587 26.531C137.762 26.4796 137.88 26.3819 137.942 26.2379C138.004 26.0939 138.034 25.8624 138.034 25.5436V21.9796H132.742V25.5436C132.742 25.8522 132.773 26.0836 132.835 26.2379C132.897 26.3819 133.015 26.4796 133.19 26.531C133.375 26.5824 133.663 26.6082 134.054 26.6082C134.074 26.6082 134.085 26.639 134.085 26.7007C134.085 26.7624 134.074 26.7933 134.054 26.7933C133.704 26.7933 133.432 26.7882 133.236 26.7779L131.956 26.7624L130.829 26.7779C130.634 26.7882 130.361 26.7933 130.012 26.7933C129.991 26.7933 129.981 26.7624 129.981 26.7007C129.981 26.639 129.991 26.6082 130.012 26.6082C130.382 26.6082 130.654 26.5824 130.829 26.531C131.004 26.4796 131.122 26.3819 131.184 26.2379C131.246 26.0836 131.277 25.8522 131.277 25.5436V18.4002C131.277 18.0916 131.246 17.8653 131.184 17.7213C131.122 17.5773 131.004 17.4796 130.829 17.4282C130.654 17.3664 130.387 17.3356 130.027 17.3356C130.006 17.3356 129.996 17.3047 129.996 17.243C129.996 17.1813 130.006 17.1504 130.027 17.1504L130.845 17.1659C131.318 17.1864 131.688 17.1967 131.956 17.1967C132.316 17.1967 132.742 17.1864 133.236 17.1659L134.054 17.1504C134.074 17.1504 134.085 17.1813 134.085 17.243C134.085 17.3047 134.074 17.3356 134.054 17.3356C133.673 17.3356 133.39 17.3664 133.205 17.4282C133.03 17.4899 132.907 17.5979 132.835 17.7522C132.773 17.8962 132.742 18.1224 132.742 18.431V21.5784H138.034V18.431C138.034 18.1224 138.004 17.8962 137.942 17.7522C137.88 17.5979 137.757 17.4899 137.572 17.4282C137.397 17.3664 137.119 17.3356 136.738 17.3356C136.708 17.3356 136.692 17.3047 136.692 17.243C136.692 17.1813 136.708 17.1504 136.738 17.1504L137.479 17.1659C137.973 17.1864 138.41 17.1967 138.79 17.1967C139.068 17.1967 139.444 17.1864 139.917 17.1659L140.765 17.1504C140.796 17.1504 140.812 17.1813 140.812 17.243C140.812 17.3047 140.796 17.3356 140.765 17.3356C140.395 17.3356 140.122 17.3664 139.948 17.4282C139.783 17.4796 139.67 17.5773 139.608 17.7213C139.546 17.8653 139.516 18.0916 139.516 18.4002V25.5436C139.516 25.8522 139.546 26.0836 139.608 26.2379C139.67 26.3819 139.783 26.4796 139.948 26.531C140.122 26.5824 140.395 26.6082 140.765 26.6082Z" fill="var(--fill-0, #DCB146)"/>
<path d="M150.163 16.9807C151.304 16.9807 152.225 17.1402 152.924 17.459C153.007 17.5002 153.058 17.5413 153.079 17.5824C153.099 17.6133 153.12 17.6904 153.14 17.8139L153.326 19.8504C153.326 19.8813 153.3 19.9019 153.248 19.9122C153.197 19.9224 153.161 19.907 153.14 19.8659C152.873 19.0224 152.472 18.3796 151.937 17.9373C151.412 17.495 150.759 17.2739 149.978 17.2739C149.227 17.2739 148.553 17.4642 147.956 17.8447C147.37 18.215 146.912 18.755 146.583 19.4647C146.254 20.1642 146.09 20.9819 146.09 21.9179C146.09 22.8436 146.264 23.6716 146.614 24.4019C146.964 25.1219 147.442 25.6824 148.049 26.0836C148.656 26.4847 149.34 26.6853 150.101 26.6853C150.852 26.6853 151.474 26.4899 151.968 26.099C152.472 25.6979 152.914 25.0653 153.295 24.2013C153.305 24.1704 153.336 24.1602 153.387 24.1704C153.439 24.1807 153.464 24.1962 153.464 24.2167L153.264 26.0682C153.254 26.1916 153.233 26.2687 153.202 26.2996C153.182 26.3304 153.13 26.3664 153.048 26.4076C152.122 26.7882 151.14 26.9784 150.101 26.9784C149 26.9784 148.018 26.7727 147.154 26.3613C146.29 25.9396 145.616 25.3533 145.133 24.6024C144.65 23.8413 144.408 22.9722 144.408 21.995C144.408 21.0282 144.66 20.1642 145.164 19.403C145.668 18.6419 146.357 18.0504 147.231 17.6287C148.106 17.1967 149.083 16.9807 150.163 16.9807Z" fill="var(--fill-0, #DCB146)"/>
<path d="M156.714 25.4819C156.714 25.7596 156.735 25.9602 156.776 26.0836C156.827 26.207 156.92 26.2893 157.053 26.3304C157.187 26.3716 157.403 26.3922 157.701 26.3922H158.627C159.357 26.3922 159.975 26.1916 160.479 25.7904C160.983 25.379 161.317 24.8287 161.481 24.1396C161.492 24.1087 161.523 24.0984 161.574 24.1087C161.625 24.1087 161.651 24.1242 161.651 24.155C161.559 25.1219 161.512 25.9242 161.512 26.5619C161.512 26.6442 161.497 26.7059 161.466 26.747C161.435 26.7779 161.373 26.7933 161.281 26.7933H154.06C154.04 26.7933 154.029 26.7624 154.029 26.7007C154.029 26.639 154.04 26.6082 154.06 26.6082C154.41 26.6082 154.662 26.5824 154.816 26.531C154.981 26.4796 155.089 26.3819 155.14 26.2379C155.202 26.0836 155.233 25.8522 155.233 25.5436V18.4002C155.233 18.0916 155.202 17.8653 155.14 17.7213C155.089 17.5773 154.981 17.4796 154.816 17.4282C154.652 17.3664 154.4 17.3356 154.06 17.3356C154.04 17.3356 154.029 17.3047 154.029 17.243C154.029 17.1813 154.04 17.1504 154.06 17.1504L154.847 17.1659C155.3 17.1864 155.67 17.1967 155.958 17.1967C156.267 17.1967 156.647 17.1864 157.1 17.1659L157.871 17.1504C157.902 17.1504 157.917 17.1813 157.917 17.243C157.917 17.3047 157.902 17.3356 157.871 17.3356C157.532 17.3356 157.28 17.3664 157.115 17.4282C156.961 17.4796 156.853 17.5824 156.791 17.7367C156.74 17.8807 156.714 18.107 156.714 18.4156V25.4819Z" fill="var(--fill-0, #DCB146)"/>
<path d="M170.106 19.0327C170.106 18.4979 169.983 18.0813 169.736 17.783C169.499 17.4847 169.155 17.3356 168.702 17.3356C168.682 17.3356 168.671 17.3047 168.671 17.243C168.671 17.1813 168.682 17.1504 168.702 17.1504L169.412 17.1659C169.803 17.1864 170.111 17.1967 170.338 17.1967C170.523 17.1967 170.801 17.1864 171.171 17.1659L171.85 17.1504C171.87 17.1504 171.881 17.1813 171.881 17.243C171.881 17.3047 171.87 17.3356 171.85 17.3356C171.449 17.3356 171.135 17.4847 170.909 17.783C170.693 18.0813 170.585 18.4979 170.585 19.0327V23.3527C170.585 24.0933 170.425 24.7413 170.106 25.2967C169.798 25.8419 169.355 26.2636 168.779 26.5619C168.214 26.8602 167.555 27.0093 166.805 27.0093C166.054 27.0093 165.385 26.8653 164.799 26.5773C164.213 26.279 163.755 25.8573 163.426 25.3122C163.107 24.7567 162.947 24.1087 162.947 23.3682V18.4002C162.947 18.0916 162.917 17.8653 162.855 17.7213C162.793 17.5773 162.68 17.4796 162.515 17.4282C162.361 17.3664 162.114 17.3356 161.775 17.3356C161.744 17.3356 161.729 17.3047 161.729 17.243C161.729 17.1813 161.744 17.1504 161.775 17.1504L162.577 17.1659C163.03 17.1864 163.395 17.1967 163.673 17.1967C163.981 17.1967 164.362 17.1864 164.814 17.1659L165.586 17.1504C165.617 17.1504 165.632 17.1813 165.632 17.243C165.632 17.3047 165.617 17.3356 165.586 17.3356C165.246 17.3356 164.994 17.3664 164.83 17.4282C164.665 17.4899 164.552 17.5979 164.49 17.7522C164.439 17.8962 164.413 18.1224 164.413 18.431V22.8282C164.413 24.0522 164.665 24.9676 165.169 25.5744C165.683 26.171 166.398 26.4693 167.314 26.4693C168.188 26.4693 168.872 26.2019 169.366 25.667C169.859 25.1219 170.106 24.3556 170.106 23.3682V19.0327Z" fill="var(--fill-0, #DCB146)"/>
<path d="M176.913 21.3779C177.756 21.4704 178.43 21.7533 178.934 22.2264C179.438 22.6996 179.69 23.2859 179.69 23.9853C179.69 24.5202 179.541 25.0087 179.243 25.451C178.955 25.883 178.548 26.2276 178.024 26.4847C177.509 26.7316 176.933 26.855 176.296 26.855C175.997 26.855 175.653 26.8396 175.262 26.8087C175.128 26.7984 174.959 26.7882 174.753 26.7779C174.547 26.7676 174.316 26.7624 174.059 26.7624L172.948 26.7779C172.752 26.7882 172.485 26.7933 172.145 26.7933C172.115 26.7933 172.099 26.7624 172.099 26.7007C172.099 26.639 172.115 26.6082 172.145 26.6082C172.475 26.6082 172.721 26.5824 172.886 26.531C173.051 26.4693 173.164 26.3664 173.225 26.2224C173.297 26.0784 173.333 25.8522 173.333 25.5436V18.4002C173.333 18.1019 173.297 17.8807 173.225 17.7367C173.164 17.5824 173.051 17.4796 172.886 17.4282C172.732 17.3664 172.49 17.3356 172.161 17.3356C172.14 17.3356 172.13 17.3047 172.13 17.243C172.13 17.1813 172.14 17.1504 172.161 17.1504L172.963 17.1659C173.416 17.1864 173.781 17.1967 174.059 17.1967C174.347 17.1967 174.65 17.1813 174.969 17.1504C175.082 17.1402 175.216 17.1299 175.37 17.1196C175.535 17.1093 175.72 17.1042 175.925 17.1042C176.841 17.1042 177.54 17.279 178.024 17.6287C178.507 17.9784 178.749 18.4722 178.749 19.1099C178.749 19.6036 178.589 20.051 178.271 20.4522C177.952 20.843 177.499 21.1516 176.913 21.3779ZM175.663 17.4127C175.334 17.4127 175.108 17.4796 174.984 17.6133C174.871 17.747 174.815 18.0196 174.815 18.431V21.3624L175.463 21.3779C176.069 21.3779 176.527 21.1824 176.836 20.7916C177.144 20.3904 177.299 19.8762 177.299 19.2487C177.299 18.6624 177.16 18.2099 176.882 17.891C176.604 17.5722 176.198 17.4127 175.663 17.4127ZM176.049 26.5002C177.437 26.5002 178.132 25.7853 178.132 24.3556C178.132 23.5739 177.926 22.9464 177.515 22.4733C177.113 22.0002 176.522 21.7636 175.74 21.7636C175.37 21.7636 175.061 21.7739 174.815 21.7944V25.5436C174.815 25.7802 174.845 25.9653 174.907 26.099C174.969 26.2327 175.087 26.3356 175.262 26.4076C175.437 26.4693 175.699 26.5002 176.049 26.5002Z" fill="var(--fill-0, #DCB146)"/>
</g>
</g>
</g>
<defs>
<linearGradient id="paint0_linear_0_4" x1="27.4286" y1="0" x2="27.4286" y2="51.0004" gradientUnits="userSpaceOnUse">
<stop stop-color="#FFF494"/>
<stop offset="0.413691" stop-color="#FFCD50"/>
<stop offset="0.672056" stop-color="#754700"/>
</linearGradient>
<linearGradient id="paint1_linear_0_4" x1="27.4286" y1="0" x2="27.4286" y2="51.0004" gradientUnits="userSpaceOnUse">
<stop stop-color="#FFF494"/>
<stop offset="0.413691" stop-color="#FFCD50"/>
<stop offset="0.672056" stop-color="#754700"/>
</linearGradient>
<linearGradient id="paint2_linear_0_4" x1="27.4286" y1="0" x2="27.4286" y2="51.0004" gradientUnits="userSpaceOnUse">
<stop stop-color="#FFF494"/>
<stop offset="0.413691" stop-color="#FFCD50"/>
<stop offset="0.672056" stop-color="#754700"/>
</linearGradient>
</defs>
</svg>
