<svg preserveAspectRatio="none" width="100%" height="100%" overflow="visible" style="display: block;" viewBox="0 0 16 16" fill="none" xmlns="http://www.w3.org/2000/svg">
<g id="mail-01">
<path id="Vector" d="M1.34372 8.98375C1.3873 11.0275 1.40909 12.0493 2.16318 12.8063C2.91726 13.5632 3.96676 13.5896 6.06576 13.6423C7.3594 13.6748 8.64034 13.6748 9.934 13.6423C12.033 13.5896 13.0825 13.5632 13.8366 12.8063C14.5907 12.0493 14.6125 11.0275 14.656 8.98375C14.6701 8.32662 14.6701 7.67342 14.656 7.01628C14.6125 4.97259 14.5907 3.95074 13.8366 3.19379C13.0825 2.43684 12.033 2.41047 9.934 2.35773C8.64034 2.32522 7.3594 2.32522 6.06575 2.35772C3.96676 2.41046 2.91726 2.43682 2.16317 3.19378C1.40908 3.95074 1.3873 4.97258 1.34371 7.01628C1.3297 7.67342 1.3297 8.32662 1.34372 8.98375Z" fill="var(--fill-0, #F5F5F5)"/>
<path id="Vector_2" d="M1.3332 4L5.94188 6.61131C7.64094 7.574 8.3588 7.574 10.0579 6.61131L14.6665 4" stroke="var(--stroke-0, #07181D)" stroke-linejoin="round"/>
</g>
</svg>
