<svg preserveAspectRatio="none" width="100%" height="100%" overflow="visible" style="display: block;" viewBox="0 0 15.4673 12.8" fill="none" xmlns="http://www.w3.org/2000/svg">
<g id="Frame 1707481332">
<path id="Vector" d="M0.948808 5.57947L10.1618 1.80319C11.0712 1.40982 14.1554 0.151064 14.1554 0.151064C14.1554 0.151064 15.5789 -0.399643 15.4602 0.937789C15.4207 1.4885 15.1044 3.41597 14.788 5.50079L13.7995 11.6766C13.7995 11.6766 13.7204 12.5813 13.0483 12.7387C12.3761 12.896 11.2689 12.188 11.0712 12.0306C10.9131 11.9126 8.10567 10.1425 7.07761 9.27708C6.80083 9.04106 6.4845 8.56902 7.11715 8.01832C8.54062 6.72022 10.2409 5.10743 11.2689 4.08469C11.7434 3.61265 12.2179 2.51124 10.2409 3.84867L4.66563 7.58562C4.66563 7.58562 4.03298 7.97898 2.84676 7.62495C1.66054 7.27093 0.276617 6.79889 0.276617 6.79889C0.276617 6.79889 -0.672359 6.20885 0.948808 5.57947Z" fill="var(--fill-0, #F5F5F5)"/>
</g>
</svg>
