<svg preserveAspectRatio="none" width="100%" height="100%" overflow="visible" style="display: block;" viewBox="0 0 227.967 330.244" fill="none" xmlns="http://www.w3.org/2000/svg">
<g id="Group 1707481305">
<mask id="mask0_0_4" style="mask-type:alpha" maskUnits="userSpaceOnUse" x="0" y="0" width="228" height="331">
<rect id="Rectangle 99" x="8.51826e-06" y="0.000118482" width="227.967" height="330.244" rx="11.9777" fill="var(--fill-0, #B5E1EC)"/>
</mask>
<g mask="url(#mask0_0_4)">
<rect id="Rectangle 100" width="227.967" height="330.244" rx="11.9777" fill="var(--fill-0, #E1F0FF)"/>
<g id="Group 1707481288" opacity="0.1">
<path id="Ellipse 12" fill-rule="evenodd" clip-rule="evenodd" d="M63.0704 -58.9552C63.0114 -59.0001 62.9523 -59.0447 62.8931 -59.0893C62.8395 -59.1297 62.7858 -59.1703 62.7321 -59.2105L62.8931 -59.0893L63.0704 -58.9552Z" fill="var(--fill-0, black)"/>
<g id="Group 1707481287">
<mask id="mask1_0_4" style="mask-type:alpha" maskUnits="userSpaceOnUse" x="-14" y="-77" width="121" height="208">
<path id="Rectangle 100_2" d="M-11.3147 -13.4857C-18.1291 23.3727 -9.55825 65.9842 8.50689 95.3283L7.16927 102.563L29.663 119.657C29.7753 119.743 29.8879 119.829 30.0008 119.915C61.9507 144.197 95.2541 123.84 104.386 74.4462C113.518 25.0525 95.0205 -34.6731 63.0706 -58.9549L62.8933 -59.089L62.7322 -59.2103L40.2391 -76.3067L38.9015 -69.0717C15.7739 -71.0338 -4.5002 -50.3441 -11.3147 -13.4857Z" fill="var(--fill-0, black)"/>
</mask>
<g mask="url(#mask1_0_4)">
<path id="Rectangle 102" d="M-11.3147 -13.4857C-18.1291 23.3727 -9.55825 65.9842 8.50689 95.3283L7.16927 102.563L29.663 119.657C29.7753 119.743 29.8879 119.829 30.0008 119.915C61.9507 144.197 95.2541 123.84 104.386 74.4462C113.518 25.0525 95.0205 -34.6731 63.0706 -58.9549L62.8933 -59.089L62.7322 -59.2103L40.2391 -76.3067L38.9015 -69.0717C15.7739 -71.0338 -4.5002 -50.3441 -11.3147 -13.4857Z" fill="var(--fill-0, black)"/>
<rect id="Rectangle 101" width="31.7681" height="70.2408" transform="matrix(0.163312 -0.883331 1.33569 1.01511 36.1768 38.6098)" fill="var(--fill-0, black)"/>
<rect id="Rectangle 103" width="31.7681" height="70.2408" transform="matrix(0.163312 -0.883331 1.33569 1.01511 0.258153 91.2943)" fill="var(--fill-0, black)"/>
<rect id="Rectangle 104" width="31.7681" height="70.2408" transform="matrix(0.163312 -0.883331 1.33569 1.01511 27.3157 -46.7949)" fill="var(--fill-0, black)"/>
</g>
</g>
<g id="Mask group">
<mask id="mask2_0_4" style="mask-type:alpha" maskUnits="userSpaceOnUse" x="-37" y="-87" width="121" height="200">
<ellipse id="Ellipse 11" cx="101.247" cy="43.3114" rx="101.247" ry="43.3114" transform="matrix(0.163312 -0.883331 1.33569 1.01511 -50.681 58.5974)" fill="var(--fill-0, black)"/>
</mask>
<g mask="url(#mask2_0_4)">
<ellipse id="Ellipse 14" cx="101.247" cy="43.3114" rx="101.247" ry="43.3114" transform="matrix(0.163312 -0.883331 1.33569 1.01511 -50.681 58.5974)" fill="var(--fill-0, black)"/>
<g id="Ellipse 17" filter="url(#filter0_g_0_4)">
<path fill-rule="evenodd" clip-rule="evenodd" d="M-5.20141 90.6661C-3.2154 92.5626 -1.16682 94.3182 0.94028 95.9195C32.8902 120.201 66.1936 99.8441 75.3256 50.4505C83.2028 7.84342 70.5214 -42.4515 46.381 -71.0531C74.5088 -44.192 90.0844 10.9582 81.5547 57.0943C72.4227 106.488 39.1193 126.845 7.1694 102.563C2.77959 99.2271 -1.35627 95.2218 -5.20141 90.6661Z" fill="var(--fill-0, black)"/>
</g>
<path id="Rectangle 101_2" d="M45.3822 45.3725L50.5336 17.5097L83.3982 42.4866L84.2348 59.0722L78.2468 70.3494L45.3822 45.3725Z" fill="var(--fill-0, black)"/>
<path id="Rectangle 107" d="M-49.4431 -25.4144L-43.8767 -55.5214L-4.05404 -23.9766L-3.21738 -7.39101L-9.20538 3.88622L-49.4431 -25.4144Z" fill="var(--fill-0, black)"/>
<path id="Rectangle 105" d="M12.3689 80.5076L40.4717 63.2795L57.9918 103.634L45.399 120.534L27.7064 112.123L12.3689 80.5076Z" fill="var(--fill-0, black)"/>
<path id="Rectangle 106" d="M38.7042 -50.6958L54.297 -0.259305L80.5836 -7.32133L76.5728 -36.84L60.5125 -54.0806L38.7042 -50.6958Z" fill="var(--fill-0, black)"/>
<path id="Rectangle 108" d="M-15.593 -108.27L0.460406 -57.6259L26.4619 -65.0452L22.1419 -94.7443L6.00727 -111.932L-15.593 -108.27Z" fill="var(--fill-0, black)"/>
<path id="Rectangle 109" d="M-45.8623 46.2159L-16.9329 29.9041L-0.0754893 70.0344L-13.2504 86.3809L-31.0194 77.6925L-45.8623 46.2159Z" fill="var(--fill-0, black)"/>
<ellipse id="Ellipse 13" cx="86.6795" cy="34.2587" rx="86.6795" ry="34.2587" transform="matrix(0.163312 -0.883331 1.33569 1.01511 -39.9783 52.0554)" fill="var(--fill-0, black)"/>
<path id="Ellipse 16" fill-rule="evenodd" clip-rule="evenodd" d="M45.8167 -57.2704C44.8698 -58.0703 43.9099 -58.8404 42.9375 -59.5795C7.37827 -86.6043 -18.0042 -66.798 -25.8222 -24.5114C-33.6402 17.7752 -18.4417 70.7051 14.6259 93.5539C15.5983 94.2929 16.5714 94.9918 17.5443 95.6509C-10.8743 71.643 -24 24.2416 -16.434 -16.6815C-8.86809 -57.6045 16.6167 -77.0522 45.8167 -57.2704Z" fill="var(--fill-0, black)"/>
<ellipse id="Ellipse 15" cx="86.6795" cy="34.2587" rx="86.6795" ry="34.2587" transform="matrix(0.163312 -0.883331 1.33569 1.01511 -39.9783 52.0554)" fill="var(--fill-0, black)"/>
</g>
</g>
</g>
<path id="Vector" d="M106.712 211.13C93.8048 201.478 68.2327 179.412 68.2327 159.554C68.2327 146.429 77.8645 135.789 91.1082 135.789C97.9708 135.789 104.833 138.077 113.984 147.227C123.134 138.077 129.996 135.789 136.859 135.789C150.103 135.789 159.735 146.429 159.735 159.554C159.735 179.412 134.163 201.478 121.255 211.13C116.911 214.378 111.056 214.378 106.712 211.13Z" fill="var(--fill-0, #D41414)"/>
<g id="Group 1707481305_2">
<path id="A" d="M21.1762 28.6609L21.6691 27.7572H32.8432L33.1307 28.6609H21.1762ZM42.4151 38.8901C42.552 38.8901 42.6205 38.9723 42.6205 39.1366C42.6205 39.3009 42.552 39.3831 42.4151 39.3831C41.6208 39.3831 40.7992 39.3557 39.9502 39.3009C39.1286 39.2461 38.3206 39.2188 37.5264 39.2188C36.65 39.2188 35.8832 39.2461 35.2259 39.3009C34.596 39.3557 33.8839 39.3831 33.0897 39.3831C32.9801 39.3831 32.9253 39.3009 32.9253 39.1366C32.9253 38.9723 32.9801 38.8901 33.0897 38.8901C34.4316 38.8901 35.2533 38.6847 35.5545 38.2739C35.8558 37.8357 35.7051 36.9867 35.1026 35.7269L26.2702 17.3637L27.5848 15.3918L19.574 33.9604C18.8619 35.631 18.8208 36.8771 19.4508 37.6988C20.0807 38.493 21.2583 38.8901 22.9837 38.8901C23.1207 38.8901 23.1891 38.9723 23.1891 39.1366C23.1891 39.3009 23.1207 39.3831 22.9837 39.3831C22.1621 39.3831 21.409 39.3557 20.7243 39.3009C20.0396 39.2461 19.1769 39.2188 18.1362 39.2188C17.1228 39.2188 16.3012 39.2461 15.6713 39.3009C15.0688 39.3557 14.3293 39.3831 13.4529 39.3831C13.3434 39.3831 13.2886 39.3009 13.2886 39.1366C13.2886 38.9723 13.3434 38.8901 13.4529 38.8901C14.1924 38.8901 14.836 38.7532 15.3837 38.4793C15.9315 38.178 16.4518 37.644 16.9448 36.8771C17.4652 36.1103 18.0266 35.0148 18.6291 33.5907L27.3794 13.4199C27.4068 13.3377 27.5026 13.2966 27.667 13.2966C27.8313 13.2692 27.9271 13.3103 27.9545 13.4199L37.814 33.755C38.4713 35.097 39.0327 36.1514 39.4983 36.9182C39.9913 37.6577 40.4705 38.178 40.9361 38.4793C41.4017 38.7532 41.8947 38.8901 42.4151 38.8901Z" fill="var(--fill-0, #D41414)"/>
<path id="Vector_2" d="M26.166 69.6506C22.1604 66.6552 14.2246 59.8073 14.2246 53.6449C14.2246 49.5718 17.2136 46.27 21.3235 46.27C23.4532 46.27 25.5829 46.9798 28.4225 49.8194C31.262 46.9798 33.3917 46.27 35.5214 46.27C39.6312 46.27 42.6203 49.5718 42.6203 53.6449C42.6203 59.8073 34.6846 66.6552 30.6789 69.6506C29.331 70.6585 27.5139 70.6585 26.166 69.6506Z" fill="var(--fill-0, #D41414)"/>
</g>
<g id="Group 1707481306">
<path id="A_2" d="M206.791 301.583L206.298 302.487H195.124L194.837 301.583H206.791ZM185.552 291.354C185.415 291.354 185.347 291.271 185.347 291.107C185.347 290.943 185.415 290.861 185.552 290.861C186.347 290.861 187.168 290.888 188.017 290.943C188.839 290.998 189.647 291.025 190.441 291.025C191.317 291.025 192.084 290.998 192.741 290.943C193.371 290.888 194.083 290.861 194.878 290.861C194.987 290.861 195.042 290.943 195.042 291.107C195.042 291.271 194.987 291.354 194.878 291.354C193.536 291.354 192.714 291.559 192.413 291.97C192.112 292.408 192.262 293.257 192.865 294.517L201.697 312.88L200.383 314.852L208.393 296.283C209.105 294.613 209.146 293.367 208.517 292.545C207.887 291.751 206.709 291.354 204.984 291.354C204.847 291.354 204.778 291.271 204.778 291.107C204.778 290.943 204.847 290.861 204.984 290.861C205.805 290.861 206.558 290.888 207.243 290.943C207.928 290.998 208.79 291.025 209.831 291.025C210.845 291.025 211.666 290.998 212.296 290.943C212.899 290.888 213.638 290.861 214.514 290.861C214.624 290.861 214.679 290.943 214.679 291.107C214.679 291.271 214.624 291.354 214.514 291.354C213.775 291.354 213.131 291.491 212.584 291.764C212.036 292.066 211.516 292.6 211.023 293.367C210.502 294.133 209.941 295.229 209.338 296.653L200.588 316.824C200.561 316.906 200.465 316.947 200.3 316.947C200.136 316.974 200.04 316.933 200.013 316.824L190.153 296.489C189.496 295.147 188.935 294.092 188.469 293.325C187.976 292.586 187.497 292.066 187.031 291.764C186.566 291.491 186.073 291.354 185.552 291.354Z" fill="var(--fill-0, #D41414)"/>
<path id="Vector_3" d="M201.801 260.593C205.807 263.588 213.743 270.436 213.743 276.599C213.743 280.672 210.754 283.974 206.644 283.974C204.514 283.974 202.384 283.264 199.545 280.424C196.705 283.264 194.576 283.974 192.446 283.974C188.336 283.974 185.347 280.672 185.347 276.599C185.347 270.436 193.283 263.588 197.288 260.593C198.636 259.585 200.453 259.585 201.801 260.593Z" fill="var(--fill-0, #D41414)"/>
</g>
</g>
</g>
<defs>
<filter id="filter0_g_0_4" x="-51.5147" y="-101.588" width="150.438" height="229.433" filterUnits="userSpaceOnUse" color-interpolation-filters="sRGB">
<feFlood flood-opacity="0" result="BackgroundImageFix"/>
<feBlend mode="normal" in="SourceGraphic" in2="BackgroundImageFix" result="shape"/>
<feTurbulence type="fractalNoise" baseFrequency="0.99900001287460327 0.99900001287460327" numOctaves="3" seed="9305" />
<feDisplacementMap in="shape" scale="30.072961807250977" xChannelSelector="R" yChannelSelector="G" result="displacedImage" width="100%" height="100%" />
<feMerge result="effect1_texture_0_4">
<feMergeNode in="displacedImage"/>
</feMerge>
</filter>
</defs>
</svg>
