<svg preserveAspectRatio="none" width="100%" height="100%" overflow="visible" style="display: block;" viewBox="0 0 227.967 330.244" fill="none" xmlns="http://www.w3.org/2000/svg">
<g id="Group 1707481307">
<rect id="Rectangle 99" width="227.967" height="330.244" rx="13.2886" fill="var(--fill-0, #719BC4)"/>
<path id="Vector" d="M106.712 211.131C93.8048 201.479 68.2327 179.412 68.2327 159.554C68.2327 146.429 77.8645 135.789 91.1082 135.789C97.9708 135.789 104.833 138.077 113.984 147.227C123.134 138.077 129.996 135.789 136.859 135.789C150.103 135.789 159.735 146.429 159.735 159.554C159.735 179.412 134.163 201.479 121.255 211.131C116.911 214.378 111.056 214.378 106.712 211.131Z" fill="var(--fill-0, #D41414)"/>
<g id="Group 1707481305">
<path id="A" d="M21.176 28.6613L21.669 27.7576L32.843 27.7576L33.1306 28.6613L21.176 28.6613ZM42.4149 38.8905C42.5518 38.8905 42.6203 38.9727 42.6203 39.137C42.6203 39.3013 42.5518 39.3835 42.4149 39.3835C41.6206 39.3835 40.799 39.3561 39.95 39.3013C39.1284 39.2465 38.3205 39.2192 37.5262 39.2192C36.6498 39.2192 35.883 39.2465 35.2257 39.3013C34.5958 39.3561 33.8837 39.3835 33.0895 39.3835C32.9799 39.3835 32.9252 39.3013 32.9252 39.137C32.9252 38.9727 32.9799 38.8905 33.0895 38.8905C34.4315 38.8905 35.2531 38.6851 35.5543 38.2743C35.8556 37.8361 35.705 36.9871 35.1025 35.7273L26.27 17.3641L27.5846 15.3922L19.5738 33.9608C18.8618 35.6314 18.8207 36.8775 19.4506 37.6992C20.0805 38.4934 21.2581 38.8905 22.9836 38.8905C23.1205 38.8905 23.189 38.9727 23.189 39.137C23.189 39.3013 23.1205 39.3835 22.9836 39.3835C22.1619 39.3835 21.4088 39.3561 20.7241 39.3013C20.0394 39.2465 19.1767 39.2192 18.136 39.2192C17.1227 39.2192 16.301 39.2465 15.6711 39.3013C15.0686 39.3561 14.3292 39.3835 13.4528 39.3835C13.3432 39.3835 13.2884 39.3013 13.2884 39.137C13.2884 38.9727 13.3432 38.8905 13.4528 38.8905C14.1922 38.8905 14.8358 38.7536 15.3836 38.4797C15.9313 38.1784 16.4517 37.6444 16.9446 36.8775C17.465 36.1107 18.0264 35.0152 18.629 33.5911L27.3792 13.4203C27.4066 13.3381 27.5025 13.297 27.6668 13.297C27.8311 13.2696 27.927 13.3107 27.9544 13.4203L37.8138 33.7554C38.4711 35.0974 39.0325 36.1518 39.4981 36.9186C39.9911 37.6581 40.4704 38.1784 40.936 38.4797C41.4015 38.7536 41.8945 38.8905 42.4149 38.8905Z" fill="var(--fill-0, #D41414)"/>
<path id="Vector_2" d="M26.1658 69.651C22.1602 66.6557 14.2244 59.8078 14.2244 53.6454C14.2244 49.5723 17.2134 46.2704 21.3233 46.2704C23.453 46.2704 25.5827 46.9803 28.4223 49.8199C31.2618 46.9803 33.3915 46.2704 35.5212 46.2704C39.6311 46.2704 42.6201 49.5723 42.6201 53.6454C42.6201 59.8078 34.6844 66.6557 30.6787 69.651C29.3308 70.6589 27.5138 70.6589 26.1658 69.651Z" fill="var(--fill-0, #D41414)"/>
</g>
<g id="Group 1707481306">
<path id="A_2" d="M206.791 301.583L206.298 302.487H195.124L194.836 301.583H206.791ZM185.552 291.354C185.415 291.354 185.346 291.272 185.346 291.107C185.346 290.943 185.415 290.861 185.552 290.861C186.346 290.861 187.168 290.888 188.017 290.943C188.838 290.998 189.646 291.025 190.44 291.025C191.317 291.025 192.084 290.998 192.741 290.943C193.371 290.888 194.083 290.861 194.877 290.861C194.987 290.861 195.042 290.943 195.042 291.107C195.042 291.272 194.987 291.354 194.877 291.354C193.535 291.354 192.714 291.559 192.412 291.97C192.111 292.408 192.262 293.257 192.864 294.517L201.697 312.88L200.382 314.852L208.393 296.283C209.105 294.613 209.146 293.367 208.516 292.545C207.886 291.751 206.709 291.354 204.983 291.354C204.846 291.354 204.778 291.272 204.778 291.107C204.778 290.943 204.846 290.861 204.983 290.861C205.805 290.861 206.558 290.888 207.243 290.943C207.927 290.998 208.79 291.025 209.831 291.025C210.844 291.025 211.666 290.998 212.296 290.943C212.898 290.888 213.638 290.861 214.514 290.861C214.624 290.861 214.678 290.943 214.678 291.107C214.678 291.272 214.624 291.354 214.514 291.354C213.775 291.354 213.131 291.491 212.583 291.765C212.035 292.066 211.515 292.6 211.022 293.367C210.502 294.134 209.94 295.229 209.338 296.653L200.588 316.824C200.56 316.906 200.464 316.947 200.3 316.947C200.136 316.975 200.04 316.934 200.012 316.824L190.153 296.489C189.496 295.147 188.934 294.092 188.469 293.326C187.976 292.586 187.496 292.066 187.031 291.765C186.565 291.491 186.072 291.354 185.552 291.354Z" fill="var(--fill-0, #D41414)"/>
<path id="Vector_3" d="M201.801 260.593C205.807 263.589 213.743 270.437 213.743 276.599C213.743 280.672 210.754 283.974 206.644 283.974C204.514 283.974 202.384 283.264 199.545 280.425C196.705 283.264 194.576 283.974 192.446 283.974C188.336 283.974 185.347 280.672 185.347 276.599C185.347 270.437 193.283 263.589 197.288 260.593C198.636 259.586 200.453 259.586 201.801 260.593Z" fill="var(--fill-0, #D41414)"/>
</g>
</g>
</svg>
