<svg preserveAspectRatio="none" width="100%" height="100%" overflow="visible" style="display: block;" viewBox="0 0 232.639 119.156" fill="none" xmlns="http://www.w3.org/2000/svg">
<g id="Group 1707481288">
<path id="Ellipse 12" fill-rule="evenodd" clip-rule="evenodd" d="M232.639 69.3968C232.639 69.346 232.638 69.2952 232.638 69.2444C232.638 69.1983 232.637 69.1522 232.637 69.1061L232.638 69.2444L232.639 69.3968Z" fill="var(--fill-0, #E1F0FF)"/>
<g id="Group 1707481287">
<mask id="mask0_0_4" style="mask-type:alpha" maskUnits="userSpaceOnUse" x="0" y="19" width="233" height="101">
<path id="Rectangle 100" d="M116.319 19.6382C68.3811 19.6382 27.2164 32.0434 9.40991 49.7589H8.04694e-06L0.00204852 69.1062C0.000773225 69.203 8.04694e-06 69.2999 8.04694e-06 69.3969C8.04694e-06 96.878 52.078 119.156 116.319 119.156C180.561 119.156 232.639 96.878 232.639 69.3969L232.638 69.2445L232.637 69.1062L232.639 49.7589H223.229C205.422 32.0434 164.257 19.6382 116.319 19.6382Z" fill="var(--fill-0, #1E1E1E)"/>
</mask>
<g mask="url(#mask0_0_4)">
<path id="Rectangle 102" d="M116.319 19.6382C68.3811 19.6382 27.2164 32.0434 9.40991 49.7589H8.04694e-06L0.00204852 69.1062C0.000773225 69.203 8.04694e-06 69.2999 8.04694e-06 69.3969C8.04694e-06 96.878 52.078 119.156 116.319 119.156C180.561 119.156 232.639 96.878 232.639 69.3969L232.638 69.2445L232.637 69.1062L232.639 49.7589H223.229C205.422 32.0434 164.257 19.6382 116.319 19.6382Z" fill="var(--fill-0, black)"/>
<rect id="Rectangle 101" x="98.0708" y="62.7182" width="36.4972" height="80.6971" fill="var(--fill-0, #778DA2)"/>
<rect id="Rectangle 103" x="6.86118" y="42.9756" width="36.4972" height="80.6971" fill="var(--fill-0, #778DA2)"/>
<rect id="Rectangle 104" x="187.784" y="44.1275" width="36.4972" height="80.6971" fill="var(--fill-0, #778DA2)"/>
</g>
</g>
<g id="Mask group">
<mask id="mask1_0_4" style="mask-type:alpha" maskUnits="userSpaceOnUse" x="0" y="0" width="233" height="100">
<path id="Ellipse 11" d="M116.319 0.260747C148.413 0.260747 177.457 5.82682 198.467 14.8145C208.972 19.3085 217.458 24.6528 223.313 30.5742C229.166 36.4944 232.378 42.9771 232.378 49.7588C232.378 56.5404 229.166 63.0232 223.313 68.9434C217.458 74.8647 208.972 80.2091 198.467 84.7031C177.457 93.6908 148.413 99.2568 116.319 99.2568C84.2253 99.2568 55.182 93.6908 34.1719 84.7031C23.6666 80.2092 15.1819 74.8647 9.3272 68.9434C3.47354 63.0231 0.260795 56.5406 0.260795 49.7588C0.260802 42.977 3.47355 36.4945 9.3272 30.5742C15.1819 24.6529 23.6666 19.3084 34.1719 14.8145C55.182 5.82683 84.2253 0.260754 116.319 0.260747Z" fill="var(--fill-0, #1E1E1E)" stroke="var(--stroke-0, #5A5A5A)" stroke-width="0.522361"/>
</mask>
<g mask="url(#mask1_0_4)">
<path id="Ellipse 14" d="M116.319 0.260747C148.413 0.260747 177.457 5.82682 198.467 14.8145C208.972 19.3085 217.458 24.6528 223.313 30.5742C229.166 36.4944 232.378 42.9771 232.378 49.7588C232.378 56.5404 229.166 63.0232 223.313 68.9434C217.458 74.8647 208.972 80.2091 198.467 84.7031C177.457 93.6908 148.413 99.2568 116.319 99.2568C84.2253 99.2568 55.182 93.6908 34.1719 84.7031C23.6666 80.2092 15.1819 74.8647 9.3272 68.9434C3.47354 63.0231 0.260795 56.5406 0.260795 49.7588C0.260802 42.977 3.47355 36.4945 9.3272 30.5742C15.1819 24.6529 23.6666 19.3084 34.1719 14.8145C55.182 5.82683 84.2253 0.260754 116.319 0.260747Z" fill="url(#paint0_linear_0_4)" stroke="var(--stroke-0, #5A5A5A)" stroke-width="0.522361"/>
<g id="Ellipse 17" filter="url(#filter0_g_0_4)">
<path fill-rule="evenodd" clip-rule="evenodd" d="M2.84589 38.7704C2.40432 40.5326 2.17782 42.3223 2.17782 44.1347C2.17782 71.6157 54.2558 93.8935 118.497 93.8935C173.912 93.8935 220.276 77.317 231.971 55.1232C225.717 80.0814 176.324 99.5176 116.319 99.5176C52.078 99.5176 5.23823e-05 77.2399 5.23823e-05 49.7588C5.23823e-05 45.983 0.983175 42.3054 2.84589 38.7704Z" fill="var(--fill-0, #4A4A4A)"/>
</g>
<path id="Rectangle 101_2" d="M98.337 70.6034L134.575 70.6035V98.8712L116.387 101.815L98.337 98.8712L98.337 70.6034Z" fill="var(--fill-0, #E1F0FF)"/>
<path id="Rectangle 107" d="M96.8774 -10.7803L136.035 -10.7802L134.575 23.6509L116.387 26.5945L98.3369 23.6509L96.8774 -10.7803Z" fill="var(--fill-0, #E1F0FF)"/>
<path id="Rectangle 105" d="M29.6578 50.605L73.6602 69.3969L42.8249 88.2366L12.6387 81.096L6.89719 66.58L29.6578 50.605Z" fill="var(--fill-0, #E1F0FF)"/>
<path id="Rectangle 106" d="M202.102 52.172L158.1 70.964L188.935 89.8037L219.122 82.6631L224.863 68.1471L202.102 52.172Z" fill="var(--fill-0, #E1F0FF)"/>
<path id="Rectangle 108" d="M220.7 3.19577L176.861 22.364L207.856 40.9389L237.98 33.5399L243.597 18.9753L220.7 3.19577Z" fill="var(--fill-0, #E1F0FF)"/>
<path id="Rectangle 109" d="M18.2957 1.90772L61.9696 21.4508L30.8161 39.7595L0.756676 32.1027L-4.73533 17.4905L18.2957 1.90772Z" fill="var(--fill-0, #E1F0FF)"/>
<ellipse id="Ellipse 13" cx="116.319" cy="46.5181" rx="99.5828" ry="39.3586" fill="var(--fill-0, #1E1E1E)"/>
<path id="Ellipse 16" fill-rule="evenodd" clip-rule="evenodd" d="M215.764 56.6194C215.856 55.7938 215.902 54.9625 215.902 54.1261C215.902 23.5405 171.317 7.15962 116.319 7.15962C61.3211 7.15962 14.1336 26.0019 16.7364 54.1261C16.7364 54.9625 16.7827 55.7938 16.8743 56.6194C19.6224 31.8397 62.3019 15.3316 115.527 15.3316C168.751 15.3316 213.016 31.8397 215.764 56.6194Z" fill="var(--fill-0, black)"/>
<path id="Ellipse 15" d="M116.319 8.19077C143.722 8.1908 168.483 12.583 186.355 19.6468C195.295 23.18 202.46 27.3611 207.372 31.9515C212.283 36.5403 214.87 41.4634 214.87 46.5179C214.87 51.5724 212.283 56.4955 207.372 61.0843C202.46 65.6747 195.295 69.8559 186.355 73.389C168.483 80.4529 143.722 84.845 116.319 84.8451C88.9166 84.8451 64.1547 80.4529 46.2821 73.389C37.3431 69.8559 30.1789 65.6746 25.2665 61.0843C20.3557 56.4955 17.7675 51.5725 17.7675 46.5179C17.7676 41.4634 20.3558 36.5403 25.2665 31.9515C30.1789 27.3613 37.3431 23.1799 46.2821 19.6468C64.1547 12.583 88.9166 8.19077 116.319 8.19077Z" stroke="var(--stroke-0, #E1F0FF)" stroke-width="2.06308"/>
</g>
</g>
</g>
<defs>
<filter id="filter0_g_0_4" x="-17.2748" y="-17.2748" width="267.188" height="134.067" filterUnits="userSpaceOnUse" color-interpolation-filters="sRGB">
<feFlood flood-opacity="0" result="BackgroundImageFix"/>
<feBlend mode="normal" in="SourceGraphic" in2="BackgroundImageFix" result="shape"/>
<feTurbulence type="fractalNoise" baseFrequency="0.99900001287460327 0.99900001287460327" numOctaves="3" seed="9305" />
<feDisplacementMap in="shape" scale="34.549697875976562" xChannelSelector="R" yChannelSelector="G" result="displacedImage" width="100%" height="100%" />
<feMerge result="effect1_texture_0_4">
<feMergeNode in="displacedImage"/>
</feMerge>
</filter>
<linearGradient id="paint0_linear_0_4" x1="116.319" y1="4.45691e-06" x2="116.319" y2="99.5176" gradientUnits="userSpaceOnUse">
<stop offset="0.897641" stop-color="#1E1E1E"/>
<stop offset="1" stop-color="#848484"/>
</linearGradient>
</defs>
</svg>
