<svg preserveAspectRatio="none" width="100%" height="100%" overflow="visible" style="display: block;" viewBox="0 0 190.663 97.6562" fill="none" xmlns="http://www.w3.org/2000/svg">
<g id="Group 1707481311">
<path id="Ellipse 12" fill-rule="evenodd" clip-rule="evenodd" d="M190.663 56.8753C190.663 56.8336 190.663 56.792 190.662 56.7504C190.662 56.7126 190.662 56.6748 190.661 56.637L190.662 56.7504L190.663 56.8753Z" fill="var(--fill-0, #A4CFF9)"/>
<g id="Group 1707481287">
<mask id="mask0_0_4" style="mask-type:alpha" maskUnits="userSpaceOnUse" x="0" y="16" width="191" height="82">
<path id="Rectangle 100" d="M95.3312 16.0948C56.0428 16.0948 22.3056 26.2616 7.71204 40.7807H1.26918e-05L0.00168499 56.637C0.000639805 56.7163 1.26918e-05 56.7958 1.26918e-05 56.8753C1.26918e-05 79.3979 42.6813 97.6559 95.3312 97.6559C147.981 97.6559 190.663 79.3979 190.663 56.8753L190.662 56.7504L190.661 56.637L190.663 40.7807H182.951C168.357 26.2616 134.62 16.0948 95.3312 16.0948Z" fill="var(--fill-0, #1E1E1E)"/>
</mask>
<g mask="url(#mask0_0_4)">
<path id="Rectangle 102" d="M95.3312 16.0948C56.0428 16.0948 22.3056 26.2616 7.71204 40.7807H1.26918e-05L0.00168499 56.637C0.000639805 56.7163 1.26918e-05 56.7958 1.26918e-05 56.8753C1.26918e-05 79.3979 42.6813 97.6559 95.3312 97.6559C147.981 97.6559 190.663 79.3979 190.663 56.8753L190.662 56.7504L190.661 56.637L190.663 40.7807H182.951C168.357 26.2616 134.62 16.0948 95.3312 16.0948Z" fill="var(--fill-0, #002F5C)"/>
<rect id="Rectangle 101" x="80.3754" y="51.4017" width="29.9118" height="66.1365" fill="var(--fill-0, #4073A5)"/>
<rect id="Rectangle 103" x="5.62322" y="35.2214" width="29.9118" height="66.1365" fill="var(--fill-0, #4073A5)"/>
<rect id="Rectangle 104" x="153.901" y="36.1654" width="29.9118" height="66.1365" fill="var(--fill-0, #4073A5)"/>
</g>
</g>
<g id="Mask group">
<mask id="mask1_0_4" style="mask-type:alpha" maskUnits="userSpaceOnUse" x="0" y="0" width="191" height="82">
<path id="Ellipse 11" d="M95.3312 0.213867C121.634 0.213867 145.437 4.77568 162.656 12.1416C171.266 15.8247 178.22 20.2047 183.019 25.0576C187.816 29.9096 190.448 35.2223 190.448 40.7803C190.448 46.3384 187.816 51.6519 183.019 56.5039C178.22 61.3568 171.266 65.7368 162.656 69.4199C145.437 76.7858 121.634 81.3467 95.3312 81.3467C69.0281 81.3466 45.2251 76.7859 28.006 69.4199C19.3962 65.7368 12.442 61.3568 7.64371 56.5039C2.84629 51.6519 0.214023 46.3384 0.214023 40.7803C0.214123 35.2224 2.84649 29.9095 7.64371 25.0576C12.442 20.2047 19.3962 15.8247 28.006 12.1416C45.2251 4.77567 69.0281 0.213899 95.3312 0.213867Z" fill="var(--fill-0, #1E1E1E)" stroke="var(--stroke-0, #5A5A5A)" stroke-width="0.428109"/>
</mask>
<g mask="url(#mask1_0_4)">
<path id="Ellipse 14" d="M95.3312 0.213867C121.634 0.213867 145.437 4.77568 162.656 12.1416C171.266 15.8247 178.22 20.2047 183.019 25.0576C187.816 29.9096 190.448 35.2223 190.448 40.7803C190.448 46.3384 187.816 51.6519 183.019 56.5039C178.22 61.3568 171.266 65.7368 162.656 69.4199C145.437 76.7858 121.634 81.3467 95.3312 81.3467C69.0281 81.3466 45.2251 76.7859 28.006 69.4199C19.3962 65.7368 12.442 61.3568 7.64371 56.5039C2.84629 51.6519 0.214023 46.3384 0.214023 40.7803C0.214123 35.2224 2.84649 29.9095 7.64371 25.0576C12.442 20.2047 19.3962 15.8247 28.006 12.1416C45.2251 4.77567 69.0281 0.213899 95.3312 0.213867Z" fill="var(--fill-0, #084B8C)" stroke="var(--stroke-0, #5A5A5A)" stroke-width="0.428109"/>
<g id="Ellipse 17" filter="url(#filter0_g_0_4)">
<path fill-rule="evenodd" clip-rule="evenodd" d="M2.3325 31.7748C1.97061 33.2191 1.78497 34.6859 1.78497 36.1713C1.78497 58.6938 44.4663 76.9518 97.1163 76.9518C142.532 76.9518 180.531 63.3663 190.115 45.177C184.99 65.6319 144.509 81.5612 95.3315 81.5612C42.6814 81.5612 0.000155736 63.3031 0.000155736 40.7806C0.000155736 37.6861 0.805889 34.6721 2.3325 31.7748Z" fill="var(--fill-0, #A4CFF9)"/>
</g>
<path id="Rectangle 101_2" d="M80.5937 57.8641L110.293 57.8642V81.0314L95.3867 83.4439L80.5936 81.0314L80.5937 57.8641Z" fill="var(--fill-0, #A4CFF9)"/>
<path id="Rectangle 107" d="M79.3975 -8.83506L111.49 -8.83496L110.293 19.3836L95.3867 21.796L80.5937 19.3836L79.3975 -8.83506Z" fill="var(--fill-0, #A4CFF9)"/>
<path id="Rectangle 105" d="M24.3069 41.4741L60.3697 56.8753L35.0982 72.3157L10.3586 66.4635L5.65304 54.5667L24.3069 41.4741Z" fill="var(--fill-0, #A4CFF9)"/>
<path id="Rectangle 106" d="M165.636 42.7585L129.574 58.1597L154.845 73.6001L179.585 67.7479L184.29 55.8511L165.636 42.7585Z" fill="var(--fill-0, #A4CFF9)"/>
<path id="Rectangle 108" d="M180.879 2.61908L144.949 18.3287L170.352 33.552L195.04 27.4881L199.644 15.5514L180.879 2.61908Z" fill="var(--fill-0, #A4CFF9)"/>
<path id="Rectangle 109" d="M14.9947 1.56357L50.7884 17.5804L25.256 32.5856L0.620366 26.3103L-3.88069 14.3347L14.9947 1.56357Z" fill="var(--fill-0, #A4CFF9)"/>
<ellipse id="Ellipse 13" cx="95.3311" cy="38.1246" rx="81.6146" ry="32.2569" fill="var(--fill-0, #17497A)"/>
<path id="Ellipse 16" fill-rule="evenodd" clip-rule="evenodd" d="M176.833 46.4034C176.908 45.7267 176.946 45.0454 176.946 44.3599C176.946 19.2931 140.406 5.86786 95.3315 5.86786C50.257 5.86786 11.5837 21.3103 13.7169 44.3599C13.7169 45.0454 13.7549 45.7267 13.8299 46.4034C16.0822 26.0948 51.0608 12.5653 94.6819 12.5653C138.303 12.5653 174.581 26.0948 176.833 46.4034Z" fill="var(--fill-0, #002F5C)"/>
<path id="Ellipse 15" d="M95.3308 6.71342C117.789 6.71342 138.082 10.3128 152.73 16.1021C160.056 18.9977 165.929 22.424 169.955 26.1861C173.98 29.9469 176.1 33.9821 176.1 38.1246C176.1 42.2671 173.98 46.3022 169.955 50.063C165.929 53.8251 160.056 57.2514 152.73 60.147C138.082 65.9363 117.789 69.5357 95.3308 69.5357C72.8726 69.5357 52.5791 65.9363 37.9314 60.147C30.6054 57.2515 24.7337 53.825 20.7077 50.063C16.683 46.3022 14.5622 42.2671 14.5622 38.1246C14.5623 33.9821 16.683 29.9469 20.7077 26.1861C24.7337 22.4241 30.6054 18.9976 37.9314 16.1021C52.5791 10.3128 72.8726 6.71346 95.3308 6.71342Z" stroke="var(--stroke-0, #A4CFF9)" stroke-width="1.69083"/>
</g>
</g>
</g>
<defs>
<filter id="filter0_g_0_4" x="-14.1577" y="-14.1579" width="218.978" height="109.877" filterUnits="userSpaceOnUse" color-interpolation-filters="sRGB">
<feFlood flood-opacity="0" result="BackgroundImageFix"/>
<feBlend mode="normal" in="SourceGraphic" in2="BackgroundImageFix" result="shape"/>
<feTurbulence type="fractalNoise" baseFrequency="0.99900001287460327 0.99900001287460327" numOctaves="3" seed="9305" />
<feDisplacementMap in="shape" scale="28.315729141235352" xChannelSelector="R" yChannelSelector="G" result="displacedImage" width="100%" height="100%" />
<feMerge result="effect1_texture_0_4">
<feMergeNode in="displacedImage"/>
</feMerge>
</filter>
</defs>
</svg>
